<svg viewBox="0 0 48 48" fill="none" xmlns="http://www.w3.org/2000/svg">
<path d="M16.5938 0.149998C12.4875 0.712498 9.01875 2.22187 6.6375 4.48125C4.9875 6.05625 3.8625 7.75312 3.14063 9.79688C2.85938 10.5844 2.8125 10.6594 2.42813 10.8656C1.86563 11.1844 0.853125 12.225 0.54375 12.8062C0.196875 13.4531 0 14.2594 0 15.0469C0 16.5937 0.69375 20.3906 1.30313 22.1344L1.48125 22.6594L0.9375 23.1375C-0.046875 24.0094 -0.16875 24.5906 0.225 26.625C1.22813 31.8375 3.75 36.5531 7.54688 40.3594C11.4 44.2125 16.1719 46.7437 21.5625 47.775C23.5875 48.1688 24.15 48.0563 25.0219 47.1094L25.4813 46.6031L26.2125 46.8281C28.0406 47.4 31.4813 48 32.9156 48C34.3031 48 35.4844 47.4937 36.3844 46.5187C37.2563 45.5812 37.575 44.7187 38.0156 42.1406C38.3344 40.2375 38.4563 38.4844 38.4188 36.075L38.3906 33.9375L39.0469 33.75C40.0875 33.4406 41.1 33.0187 42.5719 32.2875L43.9406 31.6125L43.7625 32.4656C43.3875 34.2469 42.6469 36.0844 41.8125 37.3125C41.2313 38.1656 41.1281 38.4281 41.1375 39.0187C41.1469 39.6937 41.4094 40.2 41.9344 40.5656C42.2719 40.8 42.3938 40.8281 43.0406 40.8281C43.7063 40.8281 43.7906 40.8094 44.1281 40.5375C44.8594 39.9469 46.0312 37.9312 46.7344 36.0469C47.4844 34.0406 48 31.0875 48 28.8281C48 27.7406 47.9719 27.5531 47.7938 27.1875C47.6719 26.9625 47.4188 26.6437 47.2219 26.4937C46.9125 26.2406 46.7719 26.2031 46.1906 26.175C45.5156 26.1375 45.5156 26.1469 44.7188 26.6344C42.3281 28.1062 39.8719 29.4 38.5125 29.8969L37.9781 30.0844L37.6969 29.5031C37.5375 29.1844 37.2281 28.7344 37.0031 28.5C36.7781 28.2656 35.4469 27.2812 34.0406 26.3062L31.4813 24.525L31.5375 24.0844C31.6406 23.3344 31.4438 22.425 31.0781 21.8906C29.9063 20.2031 26.25 16.875 25.2375 16.5844C24.9938 16.5187 24.4781 16.4625 24.0844 16.4719H23.3625L21.6938 13.9781C20.775 12.6094 19.8281 11.2969 19.5938 11.0625C19.3594 10.8281 18.9094 10.5 18.5906 10.3312C18.2625 10.1625 18 9.975 18 9.91875C18 9.75 18.6562 8.15625 19.0594 7.35938C19.5938 6.29062 20.1844 5.26875 20.9813 4.03125C21.8344 2.72812 21.9375 2.48438 21.9375 1.875C21.9375 1.05937 21.6281 0.5625 20.8875 0.178123C20.5875 0.0281219 20.3438 0 19.0594 0.00937271C18.2438 0.0187492 17.1375 0.0749969 16.5938 0.149998ZM15.6844 5.49375C14.9625 6.94687 14.5125 8.03437 14.25 8.95312L14.0906 9.51562L11.1938 9.57187C9.6 9.60938 8.1 9.66562 7.85625 9.70312C7.60313 9.74062 7.40625 9.74062 7.40625 9.70312C7.40625 9.50625 8.38125 8.20312 9 7.59375C10.5188 6.075 12.375 5.0625 14.8594 4.40625C16.5375 3.96562 16.4813 3.89062 15.6844 5.49375ZM14.925 13.5094C15.7125 13.5562 16.4906 13.65 16.6406 13.6969C16.8656 13.7625 17.1375 14.1094 18 15.4125C18.5906 16.3031 19.0688 17.0719 19.0594 17.1187C19.05 17.1656 18.7969 17.2594 18.4969 17.3156C14.7469 18.1219 9.02813 19.6875 6.19688 20.6906C5.55938 20.9156 5.025 21.0844 5.01562 21.075C4.94063 21 4.48125 19.2469 4.3125 18.3937C4.06875 17.1656 3.84375 15.6281 3.84375 15.1219C3.84375 14.5125 4.10625 14.2781 5.05313 14.0531C6.05625 13.8187 7.43438 13.5938 8.4375 13.5094C9.65625 13.3969 13.3219 13.3969 14.925 13.5094ZM25.1438 21.2719C25.65 21.6937 26.4375 22.4531 26.8969 22.9406C27.6375 23.7375 27.7313 23.8781 27.6938 24.1312C27 29.5687 24.4313 39.5906 22.7344 43.4719C22.5188 43.9688 22.4438 44.0531 22.275 44.0156C22.1719 43.9875 21.7875 43.9031 21.4219 43.8187C15.3656 42.4688 9.90938 38.4375 6.6375 32.8969C5.64375 31.2281 4.65 28.7344 4.22813 26.9062C4.11563 26.4187 4.00313 25.95 3.975 25.8656C3.84375 25.425 9.7875 23.4281 15.5156 21.9937C20.325 20.7937 23.7656 20.1469 24.0938 20.3906C24.1688 20.4469 24.6469 20.8406 25.1438 21.2719ZM34.1531 31.125C34.425 31.3781 34.5375 32.8781 34.5375 36.375C34.5469 39.7594 34.4813 40.5094 33.975 42.7219C33.6281 44.2594 33.5156 44.3156 31.4156 44.0062C29.3625 43.7062 27.0938 43.1719 27.0938 42.9844C27.0938 42.9281 27.2438 42.4406 27.4219 41.8969C28.3313 39.2437 29.6625 34.275 30.4219 30.75C30.6 29.8969 30.7688 29.1094 30.7969 28.9969C30.8438 28.8094 30.975 28.875 32.4188 29.8781C33.2812 30.4688 34.0594 31.0312 34.1531 31.125Z" fill="black"/>
<path d="M20.8967 30.1312C19.9404 30.3844 19.4529 31.0781 19.5186 32.1C19.5561 32.7844 19.7904 33.2062 20.3248 33.5719C20.6061 33.7594 20.7748 33.7969 21.3748 33.7969C21.9748 33.7969 22.1436 33.7594 22.4248 33.5719C23.0154 33.1594 23.2029 32.7844 23.2029 31.9687C23.2029 31.35 23.1654 31.2 22.9498 30.8719C22.5373 30.2437 21.6654 29.9344 20.8967 30.1312Z" fill="#F1C012"/>
<path d="M14.6813 31.425C14.1656 31.5375 13.8188 31.7719 13.5188 32.1937C13.2938 32.5125 13.2656 32.6531 13.2656 33.2812C13.2656 33.8812 13.3031 34.05 13.4906 34.3312C13.8469 34.8469 14.2781 35.0906 14.9063 35.1375C15.5813 35.1844 16.0031 35.0531 16.4063 34.6594C17.7844 33.3187 16.5563 31.0125 14.6813 31.425Z" fill="#F1C012"/>
<path d="M18.9188 36.2812C18.3844 36.375 17.8594 36.7781 17.625 37.2656C17.4563 37.6125 17.4282 37.8187 17.4563 38.2875C17.5219 39.3094 18.1313 39.9375 19.125 40.0125C19.8 40.0594 20.2219 39.9281 20.625 39.5344C21.0188 39.15 21.1969 38.7281 21.2063 38.1375C21.2157 36.9375 20.1375 36.0656 18.9188 36.2812Z" fill="#F1C012"/>
</svg>
