<svg viewBox="0 0 48 46" fill="none" xmlns="http://www.w3.org/2000/svg">
<path d="M16.05 0.49995C15.6375 0.5937 15.1688 0.931198 14.8969 1.32495C14.6813 1.63432 14.6719 1.74683 14.6438 3.1812L14.6156 4.70932L11.8781 4.73745C9.19688 4.77495 9.12188 4.77495 8.39062 5.02808C6.13125 5.78745 4.40625 7.63432 3.77813 9.99683C3.6375 10.5031 3.61875 11.3468 3.59063 16.5875L3.55313 22.5968L3.06563 22.9156C1.88438 23.6656 0.825 25.0531 0.309375 26.5156L0.046875 27.2656L0.028125 35.75L0 44.2343L0.215625 44.6093C0.45 45.0218 0.890625 45.3593 1.39688 45.5C1.86563 45.6312 46.1344 45.6312 46.6031 45.5C47.1094 45.3593 47.55 45.0312 47.7938 44.6093C47.9719 44.3 48 44.1218 47.9813 43.5687C47.9438 42.8187 47.7375 42.4062 47.175 42.0218L46.8375 41.7968L25.2938 41.7687L3.74063 41.75L3.76875 34.925L3.79688 28.1093L4.05938 27.5468C4.37813 26.8718 4.94063 26.2625 5.57812 25.9249L6.04688 25.6718H24H41.9531L42.4219 25.9249C42.9844 26.2156 43.5938 26.8343 43.8656 27.3687C44.1844 28.0062 44.25 28.8031 44.25 31.9062C44.25 34.7937 44.2594 34.8687 44.4656 35.2343C45.1969 36.5187 47.1469 36.4812 47.8219 35.1687C47.9906 34.8406 48 34.5687 48 31.2687C48 28.0437 47.9813 27.65 47.8125 26.9937C47.3813 25.2781 46.35 23.8343 44.8875 22.8875L44.4469 22.5968L44.4094 16.5875C44.3813 11.3468 44.3625 10.5031 44.2219 9.99683C43.5938 7.63432 41.8688 5.78745 39.6094 5.02808C38.8781 4.77495 38.8031 4.77495 36.1219 4.73745L33.3844 4.70932L33.3563 3.1812C33.3281 1.74683 33.3188 1.63432 33.1031 1.32495C32.3813 0.274948 30.8906 0.1437 30.0656 1.05307C29.6156 1.54995 29.5313 1.91557 29.5313 3.42495V4.7187H27.7031H25.875V3.26558C25.875 1.47495 25.7344 1.09058 24.9375 0.68745C23.9625 0.190575 22.8469 0.49995 22.3406 1.39058C22.1438 1.73745 22.125 1.88745 22.125 3.23745V4.7187H20.2969H18.4688V3.42495C18.4688 2.72182 18.4219 1.9812 18.3656 1.78432C18.2156 1.24057 17.6906 0.715576 17.1281 0.546825C16.6125 0.396824 16.5094 0.387451 16.05 0.49995ZM38.4281 8.70308C39.0375 8.9187 39.6375 9.37807 39.9844 9.90308C40.5844 10.8125 40.5938 10.9343 40.5938 16.6437V21.7812H24H7.40625V16.6437C7.40625 10.9343 7.41563 10.8125 8.01562 9.90308C8.35313 9.39682 8.87813 8.98433 9.51562 8.72182C9.85313 8.59058 11.2219 8.57182 23.9625 8.57182C36.075 8.56245 38.0906 8.5812 38.4281 8.70308Z" fill="black"/>
<path d="M15.4406 11.225C14.2313 11.5531 13.8 12.7531 14.25 14.5062C14.5313 15.6031 15.0281 16.4656 15.8438 17.2812C17.0531 18.4906 18.3 18.9968 20.0625 18.9968C20.8875 18.9968 21.1688 18.95 21.7969 18.7437C22.5938 18.4718 23.3156 18.0687 23.7469 17.675L24 17.4312L24.2625 17.675C24.6844 18.0687 25.4063 18.4718 26.2031 18.7437C26.8313 18.95 27.1125 18.9968 27.9375 18.9968C29.7 18.9968 30.9469 18.4906 32.1656 17.2812C32.7094 16.7375 32.9719 16.3906 33.2719 15.7812C33.9094 14.4781 34.1157 13.025 33.7594 12.2656C33.1031 10.8406 31.0313 10.775 30.3094 12.1531C30.2344 12.3125 30.1313 12.7343 30.0844 13.0906C29.9438 14.1968 29.4 14.8718 28.425 15.125C27.975 15.2375 27.5906 15.1906 27.0938 14.9375C26.3906 14.5812 26.0344 13.9906 25.9219 13.0156C25.7906 11.8718 25.0594 11.1593 24.0094 11.1593C22.8938 11.1593 22.2188 11.7968 22.0781 13.0156C21.9938 13.7093 21.8156 14.15 21.4875 14.4968C20.8031 15.2187 19.7719 15.3781 18.9656 14.8812C18.3469 14.4968 18 13.9062 17.9063 13.0906C17.8688 12.7343 17.775 12.3218 17.6906 12.1718C17.2688 11.3562 16.3688 10.9812 15.4406 11.225Z" fill="#F1C012"/>
<path d="M9.51562 28.55C8.64375 28.85 8.25 29.4875 8.25 30.575C8.25 32.9187 9.68437 35.1968 11.8219 36.2469C12.9562 36.8 13.9594 37.0156 15.1406 36.9406C16.5281 36.8562 17.6437 36.4344 18.7969 35.5625L19.4344 35.0843L19.725 35.3562C20.25 35.8531 21.1594 36.3781 22.0031 36.65C22.7344 36.8937 22.9594 36.9219 24 36.9219C25.0406 36.9219 25.2656 36.8937 25.9969 36.65C26.8406 36.3781 27.75 35.8531 28.275 35.3562L28.5656 35.0843L29.2031 35.5625C30.3562 36.4344 31.4719 36.8562 32.8594 36.9406C35.9719 37.1375 38.7937 35.0656 39.5625 32.0375C39.8156 31.0625 39.8156 29.9562 39.5625 29.4687C39.0094 28.3812 37.5187 28.1187 36.5906 28.9343C36.1687 29.3093 36.0187 29.6562 35.9062 30.5468C35.8594 30.9312 35.7281 31.4187 35.625 31.625C35.3437 32.1875 34.7437 32.7125 34.1625 32.9375C33.5437 33.1625 33.1031 33.1718 32.4375 32.975C31.4625 32.6843 30.5625 31.5031 30.5625 30.5093C30.5625 29.2718 29.5312 28.3156 28.3875 28.4656C27.4031 28.5968 26.85 29.2343 26.7094 30.3687C26.5594 31.6062 26.0812 32.3468 25.0969 32.8625C24.5437 33.1625 23.4562 33.1625 22.9031 32.8625C21.9187 32.3468 21.4406 31.6062 21.2906 30.3687C21.1875 29.5062 20.8875 28.9906 20.325 28.6906C18.9562 27.9875 17.4375 28.9437 17.4375 30.5093C17.4375 31.5031 16.5375 32.6843 15.5625 32.975C14.8969 33.1718 14.4562 33.1625 13.8375 32.9375C13.2562 32.7125 12.6562 32.1875 12.375 31.625C12.2719 31.4187 12.1406 30.9312 12.0937 30.5375C12.0469 30.1531 11.9344 29.6843 11.85 29.5062C11.4562 28.6718 10.3969 28.2406 9.51562 28.55Z" fill="#F1C012"/>
</svg>
