<svg viewBox="0 0 48 48" fill="none" xmlns="http://www.w3.org/2000/svg">
<path d="M13.2375 0.196896C12.675 0.478146 12.4031 0.93752 12.2343 1.85627C12.1593 2.27814 12.0281 2.7844 11.9343 2.98127C11.8406 3.17815 11.1 3.99377 10.2 4.87502C8.48433 6.5719 8.07183 7.10627 7.7812 8.0344C7.22808 9.84377 7.8562 11.1375 9.33745 11.2313C10.4156 11.3063 11.1375 10.7438 11.3437 9.67502C11.3906 9.41252 11.4937 9.09377 11.5781 8.9719C11.6531 8.85002 12.2531 8.25002 12.9093 7.63127C14.3625 6.26252 14.9812 5.53127 15.4031 4.6594C15.8437 3.7594 16.0312 2.99065 16.0312 2.10002C16.0312 0.75002 15.4593 0.0843954 14.2593 0.0187702C13.7625 2.00272e-05 13.5562 0.0281448 13.2375 0.196896Z" fill="#F1C012"/>
<path d="M21.675 0.196896C21.1125 0.478146 20.8406 0.93752 20.6718 1.85627C20.5968 2.27814 20.4656 2.7844 20.3718 2.98127C20.2781 3.17815 19.5375 3.99377 18.6375 4.87502C16.9218 6.5719 16.5093 7.10627 16.2187 8.0344C15.6656 9.84377 16.2937 11.1375 17.775 11.2313C18.8531 11.3063 19.575 10.7438 19.7812 9.67502C19.8281 9.41252 19.9312 9.09377 20.0156 8.9719C20.0906 8.85002 20.6906 8.25002 21.3468 7.63127C22.8 6.26252 23.4187 5.53127 23.8406 4.6594C24.2812 3.7594 24.4687 2.99065 24.4687 2.10002C24.4687 0.75002 23.8968 0.0843954 22.6968 0.0187702C22.2 2.00272e-05 21.9937 0.0281448 21.675 0.196896Z" fill="#F1C012"/>
<path d="M30.1125 0.196896C29.55 0.478146 29.2781 0.93752 29.1093 1.85627C29.0343 2.27814 28.9031 2.7844 28.8093 2.98127C28.7156 3.17815 27.975 3.99377 27.075 4.87502C25.3593 6.5719 24.9468 7.10627 24.6562 8.0344C24.1031 9.84377 24.7312 11.1375 26.2125 11.2313C27.2906 11.3063 28.0125 10.7438 28.2187 9.67502C28.2656 9.41252 28.3687 9.09377 28.4531 8.9719C28.5281 8.85002 29.1281 8.25002 29.7843 7.63127C31.2375 6.26252 31.8562 5.53127 32.2781 4.6594C32.7187 3.7594 32.9062 2.99065 32.9062 2.10002C32.9062 0.75002 32.3343 0.0843954 31.1343 0.0187702C30.6375 2.00272e-05 30.4312 0.0281448 30.1125 0.196896Z" fill="#F1C012"/>
<path d="M0.956192 15.1969C0.721817 15.3187 0.440567 15.5625 0.299942 15.7781C-0.196933 16.5281 -0.225058 16.3687 2.05307 26.3438C3.18744 31.3219 4.18119 35.5969 4.24682 35.8594C5.01557 38.6437 6.82494 41.6062 8.94369 43.5469L9.70306 44.25H5.54057C1.48119 44.25 1.35932 44.2594 0.956192 44.4469C0.712442 44.5687 0.449942 44.8031 0.299942 45.0281C0.0843172 45.3562 0.0468172 45.5062 0.0468172 46.125C0.0468172 46.7437 0.0843172 46.8937 0.299942 47.2219C0.449942 47.4469 0.712442 47.6812 0.956192 47.8031L1.36869 48H20.3437H39.3187L39.7312 47.8031C39.9749 47.6812 40.2374 47.4469 40.3874 47.2219C40.6031 46.8937 40.6406 46.7437 40.6406 46.125C40.6406 45.5062 40.6031 45.3562 40.3874 45.0281C40.2374 44.8031 39.9749 44.5687 39.7312 44.4469C39.3281 44.2594 39.2062 44.25 35.1656 44.25H31.0124L31.6874 43.6219C32.0624 43.2656 32.4468 42.8156 32.5406 42.6094C32.9062 41.8125 32.6624 40.8469 31.9406 40.275C31.6406 40.0312 31.4812 39.9844 30.9468 39.9562C30.1687 39.9094 29.9249 40.0219 29.0156 40.8281C27.9749 41.7469 27.2624 42.225 26.0343 42.8344C23.9624 43.8562 22.3312 44.2031 19.9218 44.1281C17.7656 44.0625 16.3406 43.7062 14.5312 42.7969C11.4937 41.2687 9.18744 38.5687 8.11869 35.2969C7.91244 34.6781 4.31244 19.0875 4.31244 18.8344C4.31244 18.7875 11.5218 18.75 20.3437 18.75C29.1656 18.75 36.3749 18.7687 36.3749 18.7969C36.3749 18.8156 35.5874 22.3312 34.6312 26.5969C32.7187 35.1187 32.7468 34.9406 33.2531 35.6625C33.7874 36.4219 34.5468 36.5906 36.2812 36.3281C39.6937 35.8312 43.1624 33.7125 45.3468 30.7969C47.1656 28.3687 48.0656 25.6875 47.9812 22.9125C47.9531 21.8719 47.9343 21.75 47.6999 21.4031C47.5499 21.1781 47.2874 20.9437 47.0437 20.8219C46.6406 20.6344 46.4999 20.625 43.2843 20.625C41.4468 20.625 39.9374 20.6062 39.9374 20.5875C39.9374 20.5687 40.1062 19.8094 40.3124 18.8906C40.5187 17.9719 40.6874 17.025 40.6874 16.7906C40.6874 16.2656 40.4062 15.7406 39.9093 15.3375L39.5437 15.0469L20.4562 15.0187L1.35932 15L0.956192 15.1969ZM44.0156 24.675C43.6874 26.3531 42.8624 27.8719 41.5218 29.2875C40.4156 30.4594 39.2531 31.2937 37.8656 31.9031L37.3406 32.1375L37.4156 31.7906C37.4531 31.6031 37.8281 29.9344 38.2499 28.0781C38.6624 26.2219 39.0281 24.6281 39.0562 24.5344C39.1031 24.3844 39.3093 24.375 41.5874 24.375H44.0812L44.0156 24.675Z" fill="black"/>
</svg>
