<svg viewBox="0 0 48 44" fill="none" xmlns="http://www.w3.org/2000/svg">
<path d="M0.871875 0.96262C0.646875 1.09387 0.365625 1.37512 0.234375 1.60012L0 2.00325V22.0001V41.997L0.234375 42.4001C0.58125 42.9907 1.125 43.2814 1.875 43.2814C2.625 43.2814 3.16875 42.9907 3.51562 42.4001L3.75 41.997V34.9939V27.9907L7.7625 28.0189C11.4656 28.047 11.7937 28.0564 12.0937 28.2251C12.5531 28.4689 12.7406 28.647 12.975 29.0782C13.1719 29.4439 13.1719 29.5376 13.2187 35.7814L13.2656 42.1095L13.4812 42.4657C13.8187 43.0001 14.3719 43.2814 15.0937 43.2814C15.8437 43.2814 16.3875 42.9907 16.7344 42.4001L16.9687 41.997V35.5095C16.9687 28.3001 16.9875 28.4876 16.3406 27.2126C15.8906 26.3126 14.9062 25.3282 14.0062 24.8782C12.7781 24.2595 12.6844 24.2501 7.97812 24.2501H3.75V13.122V2.00325L3.51562 1.60012C3.16875 1.00949 2.625 0.718872 1.86562 0.718872C1.3875 0.718872 1.18125 0.765747 0.871875 0.96262Z" fill="black"/>
<path d="M45.1219 0.962601C44.8969 1.09385 44.6157 1.3751 44.4844 1.6001L44.2501 2.00323V13.122V24.2501H40.0219C35.3157 24.2501 35.2219 24.2595 33.9938 24.8782C33.0938 25.3376 32.1094 26.3126 31.6501 27.2314C31.0126 28.497 31.0313 28.272 31.0313 35.4907V41.997L31.2657 42.4001C31.9501 43.5626 33.8063 43.6001 34.5188 42.4657L34.7344 42.1095L34.7813 35.7814C34.8282 29.8282 34.8376 29.4345 35.0063 29.1251C35.2501 28.6657 35.4282 28.4782 35.8594 28.2439C36.2251 28.0564 36.3563 28.047 40.2469 28.0189L44.2501 27.9907V34.9939V41.997L44.4844 42.4001C44.8313 42.9907 45.3751 43.2814 46.1251 43.2814C46.8751 43.2814 47.4188 42.9907 47.7657 42.4001L48.0001 41.997V22.0001V2.00323L47.7657 1.6001C47.4188 1.00948 46.8751 0.718849 46.1157 0.718849C45.6376 0.718849 45.4313 0.765724 45.1219 0.962601Z" fill="black"/>
<path d="M13.8281 11.4907C12.6 11.847 11.4 12.7001 10.725 13.722C10.5281 14.022 9.99375 15.1282 9.54375 16.1876C8.85 17.8095 8.71875 18.1845 8.71875 18.6157C8.71875 19.3751 8.98125 19.8345 9.73125 20.3876C12.4687 22.4032 16.7531 23.8095 21.4031 24.2032L22.125 24.2689V33.1282V41.997L22.3594 42.4001C22.7062 42.9907 23.25 43.2814 24 43.2814C24.75 43.2814 25.2937 42.9907 25.6406 42.4001L25.875 41.997V33.1282V24.2595L26.4187 24.2032C28.9406 23.9314 30.4781 23.6595 32.1562 23.172C35.2125 22.2814 38.4094 20.547 38.9062 19.5064C39.2625 18.7939 39.1594 18.222 38.3062 16.1876C37.9125 15.2314 37.4531 14.2282 37.2844 13.9564C36.675 12.9345 35.55 12.0157 34.3781 11.5751L33.7969 11.3595L24.0937 11.3407C15.1219 11.322 14.3437 11.3407 13.8281 11.4907ZM33.2156 15.2876C33.4125 15.3814 33.6844 15.6064 33.8344 15.7751C34.0781 16.0845 34.8562 17.8376 34.7719 17.9126C34.6125 18.072 32.8219 18.8689 31.9594 19.1689C29.1094 20.1532 26.025 20.547 22.4812 20.3876C20.0812 20.2845 17.9531 19.8907 15.8531 19.1689C15.0094 18.8782 13.2 18.0814 13.05 17.922C13.0312 17.9032 13.1906 17.4814 13.4062 16.9751C13.875 15.8595 14.2969 15.3814 14.9625 15.1939C15.3281 15.1001 17.1656 15.072 24.1406 15.0907C32.4656 15.1095 32.8781 15.1189 33.2156 15.2876Z" fill="#F1C012"/>
</svg>
