<svg viewBox="0 0 48 40" fill="none" xmlns="http://www.w3.org/2000/svg">
<path d="M21.1413 0.181252C20.9913 0.200001 20.4569 0.265629 19.9694 0.321877C13.36 1.05313 8.11001 4.08125 5.13814 8.8625C3.29126 11.8344 2.20376 15.5563 1.99751 19.625L1.94126 20.7969L1.43501 21.3594C0.863139 21.9875 0.263139 23.1406 0.0943893 23.9469C-0.168111 25.1656 0.113139 27.0313 0.694389 27.9594L0.919389 28.3156L0.563139 28.6625C0.113139 29.0938 -0.0274857 29.5156 0.0193893 30.2188C0.0850143 31.1281 0.638139 31.7375 1.51939 31.8875L1.92251 31.9625L1.98814 32.9844C2.10064 34.925 2.75689 36.3688 4.16314 37.775C5.11001 38.7219 5.93501 39.2375 7.17251 39.6688L7.92251 39.9219H24.0475H40.1725L40.9225 39.6688C42.16 39.2375 42.985 38.7219 43.9319 37.775C45.3381 36.3781 45.9944 34.925 46.1069 32.9938L46.1725 31.9719L46.6038 31.8688C47.4944 31.6438 48.0006 30.9781 48.0006 30.05C48.0006 29.4313 47.8319 29.0281 47.41 28.6344L47.0819 28.3156L47.2975 27.9594C47.8881 27.0313 48.1694 25.1656 47.9069 23.9469C47.7381 23.1688 47.1381 21.9875 46.6038 21.3875L46.1256 20.8625V20.1688C46.1256 19.4 45.8819 17.1406 45.7413 16.6063C45.3756 15.2281 43.3881 14.8438 42.4413 15.9688C42.0194 16.4656 41.9538 16.8594 42.085 18.1063C42.1506 18.7063 42.2256 19.2781 42.2444 19.3625C42.2913 19.5219 41.3819 19.5313 24.0569 19.5313H5.81314L5.86001 19.175C5.87876 18.9875 5.94439 18.4438 6.00064 17.9844C6.25376 15.8938 6.92876 13.6625 7.83814 11.9469C10.66 6.60313 16.0038 3.96875 24.0006 3.96875C27.9756 3.95938 30.9663 4.56875 33.8069 5.94688C35.9069 6.96875 37.3131 8.12188 39.1694 10.3344C39.6475 10.8969 40.0506 11.0938 40.7538 11.0938C42.0194 11.0938 42.9194 9.9125 42.5631 8.72188C42.4038 8.17813 41.5788 7.09063 40.4631 5.975C37.2381 2.75 32.8788 0.846878 27.4225 0.265629C26.2413 0.143753 21.9944 0.0875015 21.1413 0.181252ZM42.4506 23.375C43.4819 23.5156 44.0725 24.1063 44.1381 25.0531C44.1944 25.85 43.885 26.4031 43.1725 26.7875L42.7975 26.9844H24.0006C5.81314 26.9844 5.19439 26.975 4.87564 26.8063C4.11626 26.4031 3.80689 25.8688 3.86314 25.0531C3.92876 24.1438 4.52876 23.5156 5.45689 23.375C6.17876 23.2719 41.7381 23.2625 42.4506 23.375ZM6.71314 31.0156C6.96626 31.0906 7.56626 31.3813 8.05376 31.6719C9.61939 32.6 10.3788 32.8438 11.6725 32.8438C12.9569 32.8438 13.8288 32.5531 15.31 31.6438C16.2006 31.0906 16.9038 30.875 17.8038 30.875C18.7881 30.875 19.4163 31.0813 20.6256 31.8031C21.9475 32.5813 22.7913 32.8438 24.0006 32.8438C25.21 32.8438 26.0538 32.5813 27.3756 31.8031C28.585 31.0813 29.2131 30.875 30.1975 30.875C31.0975 30.875 31.8006 31.0906 32.6913 31.6438C34.1725 32.5531 35.0444 32.8438 36.3288 32.8438C37.6225 32.8438 38.3819 32.6 39.9475 31.6719C40.8663 31.1281 41.5413 30.875 42.0663 30.875H42.3756V31.55C42.3663 33.2281 42.0381 34.2219 41.2131 35.0563C40.6225 35.6469 39.9006 36.0031 39.0475 36.125C38.1569 36.2469 9.93814 36.2469 9.04751 36.125C8.19439 36.0031 7.47251 35.6469 6.88189 35.0563C6.05689 34.2219 5.72876 33.2281 5.71939 31.55V30.875H5.98189C6.13189 30.875 6.46001 30.9406 6.71314 31.0156Z" fill="black"/>
<path d="M29.3626 7.63437C28.7813 7.925 28.4719 8.44062 28.4251 9.18125C28.3501 10.3437 28.9969 11.0937 30.1501 11.1687C31.3126 11.2437 32.0626 10.5969 32.1376 9.44375C32.1844 8.68437 31.9313 8.10312 31.3782 7.7375C30.8532 7.39062 29.9344 7.34375 29.3626 7.63437Z" fill="#F1C012"/>
<path d="M34.5188 12.3219C33.9376 12.6125 33.6282 13.1281 33.5813 13.8687C33.5063 15.0312 34.1532 15.7812 35.3063 15.8562C36.4688 15.9312 37.2188 15.2844 37.2938 14.1312C37.3407 13.3719 37.0876 12.7906 36.5344 12.425C36.0094 12.0781 35.0907 12.0312 34.5188 12.3219Z" fill="#F1C012"/>
</svg>
