<svg viewBox="0 0 48 48" fill="none" xmlns="http://www.w3.org/2000/svg">
<path d="M8.90625 0.187401C7.40625 0.58115 5.82188 1.5749 4.90313 2.71865C4.49063 3.21553 2.91563 5.83115 0.778125 9.55302L0 10.903V12.928C0.009375 15.3186 0.140625 16.0218 0.7875 17.1562C1.32188 18.0843 2.34375 19.0968 3.225 19.5562L3.75 19.828L3.76875 29.0155C3.80625 39.1687 3.76875 38.5405 4.40625 39.9093L4.67813 40.4999H3.02813C1.10625 40.4999 0.75 40.603 0.3 41.278C0.084375 41.6062 0.046875 41.7562 0.046875 42.3749C0.046875 42.9937 0.084375 43.1437 0.3 43.4718C0.45 43.6968 0.7125 43.9312 0.95625 44.053C1.35938 44.2405 1.48125 44.2499 5.49375 44.2499H9.60938L9.98438 44.9812C10.6781 46.3405 12.0844 47.4749 13.5563 47.8499C14.3063 48.0468 15.6938 48.0468 16.4438 47.8499C17.9156 47.4749 19.3219 46.3405 20.0156 44.9812L20.3906 44.2499H24H27.6094L27.9844 44.9812C28.6781 46.3405 30.0844 47.4749 31.5563 47.8499C32.3063 48.0468 33.6938 48.0468 34.4438 47.8499C35.9625 47.4562 37.3688 46.3124 38.0531 44.8874C38.4281 44.1093 38.4375 44.0999 38.8969 43.978C40.6781 43.528 42.5625 41.9624 43.4438 40.1999C44.2313 38.6155 44.4938 36.7499 44.0531 35.8312C43.4813 34.6499 41.5406 34.528 40.8094 35.6343C40.6406 35.8874 40.5375 36.2437 40.4438 36.9093C40.2938 37.9218 40.0312 38.5593 39.5156 39.1593C39.225 39.4968 38.4094 40.1249 38.2594 40.1249C38.2313 40.1249 38.0813 39.8905 37.9313 39.5999C37.3594 38.5124 36.1219 37.4718 34.875 37.0312C34.0406 36.7312 32.4563 36.6655 31.5938 36.8905C30.0844 37.2749 28.6875 38.3999 27.9844 39.7687L27.6094 40.4999H24H20.3906L20.0156 39.7687C19.3125 38.3999 17.9156 37.2749 16.4062 36.8905C15.5438 36.6655 13.9594 36.7312 13.125 37.0312C11.8781 37.4718 10.6406 38.5124 10.0688 39.5999C9.91875 39.8905 9.76875 40.1249 9.74063 40.1249C9.7125 40.1249 9.4875 39.9937 9.25313 39.8343C8.31563 39.2155 7.74375 38.2687 7.59375 37.078C7.52813 36.5905 7.5 33.4874 7.51875 28.2749L7.54688 20.2124L8.01562 20.0999C8.65313 19.9312 9.72188 19.3874 10.1906 18.9937C10.3969 18.8062 10.6125 18.6562 10.6594 18.6562C10.6969 18.6655 10.8469 18.7593 10.9875 18.8718L11.25 19.078L11.2688 25.4624L11.2969 31.8374L11.55 32.2218C11.7 32.4468 11.9625 32.6812 12.2063 32.803L12.6188 32.9999H24H35.3813L35.7938 32.803C36.0375 32.6812 36.3 32.4468 36.45 32.2218L36.7031 31.8374L36.7313 25.4624L36.75 19.078L37.0125 18.8718C37.1531 18.7593 37.3031 18.6655 37.3406 18.6562C37.3875 18.6562 37.6031 18.8062 37.8094 18.9937C38.2781 19.3874 39.3469 19.9312 39.9844 20.0999L40.4531 20.2124L40.5 24.1499L40.5469 28.0874L40.8 28.4718C41.1656 29.0249 41.7469 29.278 42.5063 29.2312C43.2563 29.1843 43.7719 28.8749 44.0531 28.2937C44.2406 27.8905 44.25 27.7593 44.25 23.8499V19.828L44.7656 19.5562C45.6469 19.0968 46.6781 18.0843 47.2125 17.1562C47.8594 16.0218 47.9906 15.3186 48 12.928V10.903L47.2219 9.55302C45.0844 5.83115 43.5094 3.21553 43.0969 2.71865C42.1688 1.55615 40.5844 0.571777 39.0563 0.187401C38.3344 -9.91821e-05 37.9875 -9.91821e-05 23.9625 0.00927734C10.0875 0.00927734 9.58125 0.0186501 8.90625 0.187401ZM37.6125 3.83427C38.6719 3.9749 39.6562 4.52803 40.2094 5.29678C40.5 5.70927 42.75 9.51553 42.75 9.5999C42.75 9.62803 34.3125 9.65615 24 9.65615C13.6875 9.65615 5.25 9.62803 5.25 9.5999C5.25 9.51553 7.5 5.70927 7.79063 5.29678C8.325 4.55615 9.3375 3.96553 10.3031 3.84365C11.0531 3.74052 36.8625 3.74052 37.6125 3.83427ZM8.76562 13.9874C8.68125 14.7374 8.42813 15.328 7.9875 15.778C7.60313 16.1718 6.83438 16.4999 6.28125 16.4999C5.72813 16.4999 4.95938 16.1718 4.575 15.778C4.13438 15.328 3.88125 14.7374 3.79688 13.9874L3.73125 13.4062H6.28125H8.83125L8.76562 13.9874ZM17.5781 14.0343C17.4938 14.8312 17.2781 15.3374 16.8281 15.7968C16.3219 16.2937 15.825 16.4999 15.0938 16.4999C14.3625 16.4999 13.8656 16.2937 13.3594 15.7968C12.9094 15.3374 12.6938 14.8312 12.6094 14.0343L12.5438 13.4062H15.0938H17.6438L17.5781 14.0343ZM26.5781 13.9874C26.4094 15.5437 25.4156 16.4999 24 16.4999C22.5844 16.4999 21.5906 15.5437 21.4219 13.9874L21.3563 13.4062H24H26.6438L26.5781 13.9874ZM35.3906 14.0343C35.3063 14.8312 35.0906 15.3374 34.6406 15.7968C34.1344 16.2937 33.6375 16.4999 32.9062 16.4999C32.175 16.4999 31.6781 16.2937 31.1719 15.7968C30.7219 15.3374 30.5063 14.8312 30.4219 14.0343L30.3563 13.4062H32.9062H35.4563L35.3906 14.0343ZM44.2031 13.9874C44.1188 14.7374 43.8656 15.328 43.425 15.778C43.0406 16.1718 42.2719 16.4999 41.7188 16.4999C41.1656 16.4999 40.3969 16.1718 40.0125 15.778C39.5719 15.328 39.3188 14.7374 39.2344 13.9874L39.1688 13.4062H41.7188H44.2688L44.2031 13.9874ZM20.9813 19.6218C22.8469 20.6062 25.1531 20.6062 27.0281 19.6218C27.375 19.4343 27.8344 19.1249 28.0594 18.9374L28.4531 18.5905L28.875 18.9374C29.8313 19.7437 31.3875 20.3437 32.5031 20.3437H33V24.7968V29.2499H24H15V24.7968V20.3437H15.4969C16.6125 20.3437 18.2344 19.7155 19.1438 18.928L19.5469 18.5905L19.9406 18.9374C20.1656 19.1343 20.625 19.4437 20.9813 19.6218ZM15.9 40.828C17.0719 41.5218 17.0719 43.228 15.9 43.9218C14.7 44.6249 13.2188 43.7624 13.2188 42.3749C13.2188 40.9874 14.7 40.1249 15.9 40.828ZM33.9 40.828C35.4656 41.7468 34.8094 44.1562 33 44.1562C31.6219 44.1562 30.7594 42.6655 31.4531 41.4749C31.95 40.6218 33.0563 40.3312 33.9 40.828Z" fill="black"/>
</svg>
