<svg viewBox="0 0 44 48" fill="none" xmlns="http://www.w3.org/2000/svg">
<path d="M35.7812 0.103157C35.4719 0.225033 35.05 0.637535 34.8719 0.975033C34.7969 1.12503 34.375 2.53128 33.9531 4.10628C33.5219 5.67191 33.1562 6.96566 33.1375 6.98441C33.1281 7.00316 32.7062 6.75941 32.2187 6.45003C25.6375 2.26878 17.0969 2.39066 10.6 6.75941C8.44373 8.20316 6.36248 10.3594 4.89998 12.6563C4.42185 13.4157 3.60623 15.0469 3.22185 16.0313C2.6031 17.5969 2.18123 19.5094 2.01248 21.45L1.89998 22.7907L1.4781 22.8938C0.8781 23.0438 0.3156 23.6344 0.1656 24.2625C-0.0969002 25.3407 0.568725 26.4282 1.58123 26.5875L1.91873 26.6438L1.95623 29.2407C1.99373 31.6032 2.01248 31.875 2.19998 32.3719C2.59373 33.4407 3.21248 34.275 4.16873 35.0344C4.35623 35.1938 4.42185 35.4938 4.88123 38.7657C5.32185 41.8781 5.42498 42.4313 5.70623 43.1719C6.49373 45.2813 8.14373 46.8656 10.3562 47.6625L11.1719 47.9531L21.4844 47.9813C28.7031 48 31.975 47.9813 32.3969 47.9063C35.3969 47.3906 37.9 44.8313 38.4156 41.7563C38.5656 40.875 38.4344 40.3969 37.8906 39.8813C36.8125 38.8407 34.9469 39.3657 34.6937 40.7813C34.4875 42 33.9344 42.9188 33.0625 43.5282C32.0406 44.2406 32.6969 44.1938 22.375 44.2313C16.3844 44.25 12.8875 44.2219 12.4094 44.1656C11.05 43.9781 9.98123 43.2281 9.43748 42.0656C9.19373 41.5594 9.09998 41.0813 8.7531 38.6344C8.47185 36.7125 8.3781 35.7844 8.44373 35.7657C9.43748 35.4938 10.4219 34.8563 11.0594 34.0688C11.9969 32.9157 12.25 32.0063 12.25 29.7657C12.25 28.1157 12.325 27.8063 12.8406 27.4313C13.225 27.15 13.8906 27.1688 14.3031 27.4594C14.7062 27.75 14.875 28.1625 14.875 28.9032C14.875 29.6344 15.1656 30.7969 15.4937 31.4063C16.0844 32.5032 17.2187 33.45 18.4187 33.8625C19.3094 34.1625 20.7531 34.1625 21.6437 33.8625C22.4594 33.5813 23.2469 33.0657 23.8281 32.4282C24.8594 31.2938 25.1875 30.2438 25.1875 28.0594V26.625H30.9062H36.625L36.5781 26.8313C36.5594 26.9532 36.3906 28.1438 36.2125 29.4844C35.8562 32.1282 35.8656 32.3625 36.2781 32.9907C36.7 33.6282 37.7875 33.9469 38.5656 33.6469C38.9312 33.5157 39.5125 32.925 39.625 32.5875C39.7 32.3625 40.4687 26.9907 40.4687 26.6907C40.4687 26.6532 40.7687 26.625 41.125 26.625C41.5937 26.625 41.8937 26.5688 42.1375 26.4469C43.7875 25.6032 43.4219 23.2313 41.5844 22.8375C41.3406 22.7813 41.3406 22.7719 41.2844 21.6844C41.1719 19.4813 40.6937 17.5782 39.625 14.9532C39.5125 14.6719 39.5687 14.5594 41.6312 10.9219C42.8969 8.7094 43.8062 7.00316 43.8625 6.75003C44.125 5.59691 43.225 4.50003 41.9969 4.50003C41.3687 4.50003 40.9656 4.66878 40.6094 5.07191C40.45 5.25003 39.6344 6.62816 38.7812 8.12816C37.9281 9.63753 37.2156 10.8657 37.1875 10.875C37.1594 10.875 36.9625 10.6688 36.7469 10.4157L36.3531 9.96566L37.4312 6.03753C38.0219 3.88128 38.5 1.99691 38.5 1.86566C38.5 1.22816 38.0406 0.478157 37.4687 0.187534C37.0656 -0.0187149 36.1937 -0.0562172 35.7812 0.103157ZM23.2937 7.32191C27.1562 7.74378 30.5312 9.44065 33.2594 12.3282C35.6406 14.8407 37.2344 18.4875 37.4406 21.8532L37.4969 22.7719L30.1 22.8C21.9625 22.8282 22.4687 22.7907 21.8875 23.4094C21.3812 23.9438 21.3437 24.1594 21.3437 26.7844C21.3437 28.9594 21.325 29.2407 21.1656 29.5313C20.8187 30.1782 20.1437 30.4313 19.525 30.1407C18.9437 29.8688 18.7844 29.5407 18.7094 28.4625C18.5875 26.7938 18.0719 25.6688 16.9937 24.6844C16.1125 23.8782 14.7531 23.3438 13.5625 23.3438C12.8969 23.3438 11.8844 23.5969 11.2187 23.925C10.3375 24.3563 9.34373 25.3688 8.93123 26.2688C8.4906 27.225 8.40623 27.7313 8.40623 29.4469C8.40623 31.0688 8.3406 31.3688 7.90935 31.7719C7.54373 32.1094 6.86873 32.1469 6.43748 31.8563C5.7531 31.3969 5.77185 31.575 5.80935 26.0625C5.84685 21.9563 5.87498 21.0094 6.00623 20.3438C6.2406 19.1344 6.5781 18.0375 7.05623 16.9125L7.4781 15.8907L8.1531 16.5469C10.2906 18.6375 13.6562 18.5907 15.7656 16.4532C16.7031 15.4969 17.3125 14.025 17.3125 12.7032C17.3125 11.4657 16.75 10.0125 15.8969 9.06566C15.6344 8.76566 15.4281 8.50316 15.4469 8.48441C15.5312 8.40941 17.4156 7.80003 18.0156 7.65003C19.6469 7.25628 21.6156 7.13441 23.2937 7.32191ZM12.4656 11.2875C12.8594 11.4469 13.3375 12 13.4219 12.375C13.6375 13.3688 12.6531 14.4 11.6687 14.2125C10.8906 14.0625 10.375 13.4719 10.375 12.7219C10.375 12.0469 10.6375 11.6344 11.2656 11.3063C11.6125 11.1282 12.0625 11.1188 12.4656 11.2875Z" fill="black"/>
<path d="M21.5781 11.7563C21.1656 11.9344 20.6125 12.5907 20.5375 12.9844C20.4343 13.5469 20.5468 14.2125 20.8093 14.6157C21.3062 15.3657 22.5437 15.6188 23.3687 15.1407C24.6156 14.4094 24.5781 12.5063 23.3218 11.8407C22.8437 11.5969 22.0375 11.55 21.5781 11.7563Z" fill="#F1C012"/>
<path d="M26.6407 16.7531C25.4313 17.3906 25.1969 18.975 26.1813 19.8937C26.5375 20.2219 26.8938 20.3531 27.5032 20.3531C28.3844 20.3719 29.0875 19.8094 29.3313 18.9094C29.5469 18.075 29.1063 17.1187 28.3375 16.7719C27.8594 16.5562 27.025 16.5469 26.6407 16.7531Z" fill="#F1C012"/>
</svg>
