<svg viewBox="0 0 46 48" fill="none" xmlns="http://www.w3.org/2000/svg">
<path d="M25.5594 0.2344C25.325 0.375025 25.0531 0.665649 24.9031 0.918774L24.6406 1.3594V10.8281C24.6406 19.7531 24.65 20.325 24.8094 20.85C25.3438 22.575 26.4406 23.7469 28.0344 24.2906C28.9344 24.6 30.3781 24.6 31.2688 24.3C32.5438 23.8594 33.7531 22.7438 34.2594 21.525L34.475 21H39.2563C42.4438 21 44.1688 20.9625 44.4219 20.8969C44.9375 20.7563 45.5375 20.1188 45.6688 19.5656C45.8 19.0688 45.6875 17.0531 45.4625 15.7969C44.2531 9.0094 39.4531 3.31877 33.0312 1.07815C30.9594 0.36565 29.5531 0.0937748 27.5 0.0375252C25.9625 -0.00934982 25.9531 -0.00934982 25.5594 0.2344ZM29.6562 4.12502C35.3281 5.27815 39.95 9.67502 41.4125 15.3094C41.5438 15.8063 41.675 16.425 41.7125 16.6875L41.7781 17.1563H37.025C31.8688 17.1563 31.9344 17.1469 31.4094 17.6813C30.9875 18.1031 30.8563 18.45 30.7906 19.275C30.725 20.1188 30.5656 20.4 30.0219 20.625C29.4406 20.8688 28.7281 20.4656 28.5313 19.7719C28.475 19.575 28.4375 16.4813 28.4375 11.7C28.4375 4.6594 28.4469 3.93752 28.5875 3.93752C28.6719 3.93752 29.15 4.0219 29.6562 4.12502Z" fill="black"/>
<path d="M32.047 10.1625C30.922 10.65 30.5189 12.0656 31.2126 13.05C31.6345 13.65 32.0564 13.8187 33.2283 13.8562C34.5126 13.9031 34.9345 13.7812 35.4314 13.2656C36.3595 12.3094 36.0689 10.7719 34.8595 10.2094C34.3908 9.99375 32.5064 9.96562 32.047 10.1625Z" fill="#F1C012"/>
<path d="M17.7501 9.9C17.6188 9.91875 17.1407 9.98438 16.672 10.0406C16.2126 10.0969 15.2845 10.2844 14.6095 10.4531C7.1751 12.3562 1.56885 18.5906 0.453223 26.2031C0.237598 27.675 0.237598 30.225 0.453223 31.6406C1.4001 37.9406 5.20635 43.1906 10.8782 46.0312C13.5595 47.3719 16.297 48 19.4188 48C21.7907 48 23.4876 47.7375 25.5782 47.0531C26.8532 46.6312 29.0938 45.5531 29.797 45.0281C30.9313 44.1656 30.9782 42.7219 29.9095 41.8687C29.572 41.5969 29.497 41.5781 28.7845 41.5781C28.0251 41.5781 28.0063 41.5875 27.2657 42.0375C23.6376 44.2594 18.772 44.7937 14.6563 43.4156C8.32822 41.2969 4.12822 35.5125 4.12822 28.9219C4.12822 27.4312 4.24072 26.55 4.6251 25.0781C6.0501 19.5281 10.8126 15.0656 16.4845 13.9688C17.0282 13.8656 17.497 13.7812 17.5157 13.7812C17.5438 13.7812 17.572 17.3625 17.5813 21.7406L17.6095 29.7L17.9001 30.0656C18.0501 30.2625 18.3688 30.5156 18.5938 30.6281L19.0063 30.8438H26.8157C34.6157 30.8438 34.6251 30.8438 34.6251 31.0312C34.6251 31.7062 33.9876 33.9187 33.4438 35.1656C33.0501 36.0656 33.022 36.7031 33.3407 37.3219C33.8001 38.1937 34.9907 38.55 35.8907 38.0906C36.4063 37.8281 36.5282 37.6687 36.9688 36.7312C37.8313 34.8937 38.4032 32.5875 38.572 30.2344C38.6563 29.1375 38.6563 28.7344 38.5626 28.4062C38.422 27.8719 37.8126 27.2437 37.297 27.1031C37.0345 27.0281 34.5595 27 29.1688 27H21.4063V19.4062C21.4063 14.2125 21.3782 11.6719 21.3032 11.3344C21.2376 11.0156 21.0876 10.7344 20.8813 10.5C20.3751 9.94687 20.0751 9.84375 18.9501 9.85312C18.4251 9.8625 17.8813 9.88125 17.7501 9.9Z" fill="black"/>
<path d="M11.6844 20.0625C9.52815 20.4937 7.86878 22.425 7.7469 24.6562C7.7094 25.3594 7.72815 25.5 7.92503 25.875C8.0469 26.1187 8.3094 26.4187 8.54378 26.5781C8.9094 26.8312 9.03128 26.8594 9.63128 26.8594C10.2125 26.8594 10.3625 26.8219 10.6907 26.6062C11.1313 26.3156 11.5625 25.5469 11.5625 25.0406C11.5625 24.6469 11.8344 24.1594 12.1438 23.9906C12.2657 23.925 12.5844 23.8406 12.8563 23.8031C13.6157 23.7 14.1219 23.3531 14.4313 22.7344C14.6469 22.2844 14.675 22.1344 14.6282 21.6844C14.5157 20.6344 13.7282 19.9594 12.65 19.9781C12.3313 19.9875 11.9 20.025 11.6844 20.0625Z" fill="#F1C012"/>
<path d="M11.9844 29.6719C11.9376 29.6907 11.7782 29.7282 11.6282 29.7563C11.2438 29.8407 10.6626 30.4219 10.4751 30.8907C10.1376 31.8 10.5219 32.8219 11.3751 33.2625C12.2751 33.7219 13.4844 33.3657 13.9344 32.5125C14.4219 31.5563 14.0751 30.3282 13.1657 29.8594C12.9126 29.7282 12.1532 29.6063 11.9844 29.6719Z" fill="#F1C012"/>
<path d="M28.6063 32.625C27.7344 32.7937 27.125 33.5531 27.125 34.4812C27.125 35.0812 27.2469 35.4 27.6219 35.8031C28.0156 36.2062 28.4094 36.375 29.0188 36.375C30.4906 36.375 31.3625 34.9031 30.6875 33.5625C30.3219 32.8406 29.4688 32.4562 28.6063 32.625Z" fill="#F1C012"/>
<path d="M22.7282 34.8C22.2313 35.0437 21.8188 35.6531 21.725 36.2719C21.6407 36.8437 21.4813 37.0031 20.9375 37.0781C19.1844 37.3219 18.6407 39.4125 20.0282 40.5375C20.3844 40.8187 20.4219 40.8281 21.35 40.8281C22.2688 40.8281 22.3344 40.8187 23.0375 40.4719C24.2469 39.8719 25.0625 38.8875 25.3907 37.6406C25.6719 36.5531 25.5032 35.5969 24.9594 35.0906C24.3969 34.575 23.4407 34.4437 22.7282 34.8Z" fill="#F1C012"/>
<path d="M13.2219 36.375C12.8094 36.4969 12.3313 36.9094 12.1251 37.3125C11.8813 37.8 11.8719 38.6062 12.1157 39.075C12.3688 39.5531 13.8782 41.025 14.3001 41.2031C15.7438 41.7937 17.2251 40.5187 16.8876 38.9719C16.8032 38.5406 16.6907 38.3812 15.8844 37.5562C15.3876 37.05 14.8157 36.5531 14.6094 36.4594C14.2157 36.2719 13.6626 36.2437 13.2219 36.375Z" fill="#F1C012"/>
</svg>
