<svg viewBox="0 0 42 48" fill="none" xmlns="http://www.w3.org/2000/svg">
<path d="M25.9689 0.1875C24.572 0.5625 23.2501 1.425 22.3876 2.5125C22.0408 2.94375 21.872 3.08437 21.7595 3.04688C21.6751 3.00937 21.2064 2.9625 20.7189 2.93437C19.1626 2.85 17.5783 3.27187 16.2658 4.125C15.5626 4.58437 14.4095 5.76562 14.0158 6.44062C13.7626 6.88125 13.697 6.92812 13.2376 7.03125C11.6345 7.3875 9.95639 8.78437 9.15014 10.4156C8.42826 11.8875 8.40951 12.0375 8.36264 15.2437L8.33451 18.075L6.39389 18.1125C4.60326 18.1594 4.39701 18.1781 3.75951 18.4031C2.18451 18.9562 0.956386 20.175 0.365761 21.7781C0.150136 22.3594 0.140761 22.3687 0.112636 28.125C0.0938859 32.0437 0.122011 34.0875 0.187636 34.5C0.347011 35.4281 0.928261 36.5531 1.62201 37.2562C2.26889 37.9125 2.81264 38.2594 3.74076 38.6156C4.31264 38.8312 4.50014 38.85 6.34701 38.8875L8.34389 38.925V39.7875C8.34389 40.7719 8.45639 41.4937 8.73764 42.375C9.61889 45.1219 12.0189 47.25 14.9158 47.8594C15.4783 47.9812 17.0439 48 25.1533 48C34.3689 48 34.7626 47.9906 35.5033 47.8125C38.0251 47.2125 40.0595 45.5437 41.147 43.2C41.6064 42.2156 41.8033 41.4281 41.8783 40.3406C41.9251 39.5344 41.9158 39.45 41.6814 38.9625C41.3908 38.3719 40.9126 38.025 40.2658 37.9219C39.1408 37.7437 38.072 38.6812 38.0626 39.8438C38.0533 42 36.272 43.9031 34.022 44.1562C32.9814 44.2781 17.0533 44.2781 16.1251 44.1562C14.3814 43.9312 12.872 42.6844 12.3658 41.0531C12.197 40.5187 12.1876 40.0875 12.1876 33.4312V26.3719L12.7033 26.55C14.3814 27.1125 16.247 26.9344 17.9345 26.0437C18.797 25.5938 19.922 24.4219 20.4095 23.4844C21.0095 22.3125 21.1033 21.8531 21.1595 19.8L21.2064 18H29.6345H38.0626L38.0814 24.4875C38.1095 30.8719 38.1095 30.9937 38.3064 31.3594C39.0095 32.7094 41.1001 32.6531 41.7283 31.2656C41.897 30.9094 41.9064 30.3844 41.9064 20.6062C41.9064 12.1219 41.8876 10.2094 41.7751 9.6375C41.3158 7.21875 39.5345 5.2125 37.172 4.43437C36.572 4.2375 36.1783 4.18125 35.2314 4.14375L34.0408 4.10625L33.9283 3.825C33.3283 2.37187 31.6595 0.899998 29.9533 0.318748C29.3064 0.09375 29.0251 0.0562477 27.9376 0.0281219C26.897 0.00937271 26.5501 0.0374985 25.9689 0.1875ZM28.9314 4.07812C29.9533 4.52812 30.572 5.39062 30.7408 6.57187C30.7876 6.91875 30.8908 7.32187 30.9751 7.47187C31.1814 7.88437 31.7251 8.325 32.1751 8.44687C32.6533 8.56875 33.0564 8.5125 33.797 8.20312C35.2876 7.58437 36.9001 8.15625 37.6783 9.5625L38.0158 10.1719L38.0439 12.1594L38.072 14.1469L28.3876 14.175C17.5408 14.2031 18.4689 14.1469 17.7845 14.8969C17.597 15.1125 17.4283 15.2906 17.4189 15.3094C17.4095 15.3187 17.3814 16.6312 17.3533 18.2344C17.297 20.9906 17.2876 21.1594 17.0908 21.525C16.7626 22.1437 16.4345 22.4719 15.872 22.7531C14.822 23.2594 13.6126 23.0156 12.8251 22.1437C12.1783 21.4219 12.1783 21.4312 12.2064 16.9219L12.2345 12.8906L12.4876 12.3562C12.9939 11.2781 13.8751 10.6875 14.9908 10.6875C15.9751 10.6781 16.6689 10.1625 17.0064 9.16875C17.372 8.09062 18.2251 7.275 19.3501 6.92812C20.1939 6.66562 20.9158 6.7125 21.8158 7.11562C22.5564 7.43437 23.2314 7.5 23.747 7.28437C24.0658 7.14375 24.7501 6.45 24.7501 6.25312C24.7501 6.19687 24.8626 5.90625 24.9939 5.625C25.7064 4.07812 27.422 3.40312 28.9314 4.07812ZM8.34389 28.5094V35.0719L6.67514 35.0437C5.07201 35.0156 4.98764 35.0062 4.65951 34.7812C4.46264 34.65 4.22826 34.3781 4.12514 34.1625C3.94701 33.7969 3.93764 33.5812 3.93764 28.5187C3.93764 25.0219 3.97514 23.175 4.04076 22.9969C4.18139 22.6219 4.49076 22.3125 4.92201 22.1156C5.24076 21.9656 5.54076 21.9375 6.82514 21.9375H8.34389V28.5094Z" fill="black"/>
<path d="M17.2034 29.1937C16.8377 29.3531 16.4627 29.7094 16.2471 30.1031C16.0971 30.3937 16.0784 30.6844 16.0784 33.4687V36.5156L16.3034 36.9094C17.0627 38.2312 19.0034 38.1844 19.6877 36.8344C19.8659 36.4969 19.8752 36.2719 19.8752 33.4687C19.8752 30.6937 19.8659 30.4312 19.6971 30.1125C19.4721 29.6719 19.1721 29.3906 18.7315 29.2031C18.3096 29.0344 17.5877 29.025 17.2034 29.1937Z" fill="#F1C012"/>
<path d="M24.3283 29.1937C23.9908 29.3437 23.5689 29.7469 23.3627 30.1406C23.2314 30.375 23.2033 30.8156 23.1752 33.0469C23.1377 36.0656 23.1752 36.4969 23.4939 37.0031C23.8596 37.5656 24.3002 37.8187 24.9752 37.8562C25.6689 37.8937 26.2314 37.6406 26.6627 37.0969L26.9533 36.7312V33.4687V30.2062L26.6627 29.8406C26.1189 29.1562 25.0783 28.8656 24.3283 29.1937Z" fill="#F1C012"/>
<path d="M31.4533 29.1937C31.0971 29.3437 30.4971 30.0094 30.4033 30.3469C30.3096 30.6844 30.3096 36.2531 30.4033 36.5906C30.4971 36.9375 31.1064 37.5937 31.4721 37.7531C32.2314 38.0719 33.2439 37.7812 33.7877 37.0969L34.0783 36.7312V33.4687V30.2062L33.7877 29.8406C33.2439 29.1562 32.2033 28.8656 31.4533 29.1937Z" fill="#F1C012"/>
</svg>
