<svg viewBox="0 0 48 49" fill="none" xmlns="http://www.w3.org/2000/svg">
<path d="M21 1.14075C16.8375 1.65637 13.0125 3.20325 9.5625 5.76262C8.15625 6.81262 5.8125 9.15637 4.7625 10.5626C2.175 14.0501 0.646875 17.8657 0.13125 22.0939C-0.028125 23.4814 -0.028125 26.5189 0.13125 27.9064C0.646875 32.1345 2.175 35.9501 4.7625 39.4376C5.8125 40.8439 8.15625 43.1876 9.5625 44.2376C12.4688 46.3939 15.6656 47.8376 19.05 48.5407C22.2563 49.197 26.2313 49.1595 29.3438 48.4376C30.6188 48.147 32.5125 47.5189 32.8219 47.2845C33.1875 47.022 33.5625 46.2439 33.5625 45.7751C33.5531 45.0251 33.1031 44.3595 32.3906 44.022C31.8469 43.7689 31.4906 43.797 30.1875 44.2095C28.8563 44.622 27.5625 44.9032 26.2219 45.072C25.0219 45.2126 21.8063 45.1376 20.6719 44.9314C16.3969 44.1439 12.7688 42.2595 9.75938 39.2407C6.73125 36.2126 4.875 32.6501 4.05938 28.2814C3.825 27.0064 3.825 22.9939 4.05938 21.7189C4.875 17.3501 6.73125 13.7876 9.75938 10.7595C12.7688 7.74075 16.4156 5.847 20.6719 5.07825C21.1875 4.9845 22.3688 4.90012 23.6906 4.86262L25.8563 4.797L26.2688 4.51575C26.8219 4.122 27.0938 3.61575 27.0938 2.9595C27.0938 2.07825 26.7094 1.4595 25.95 1.15012C25.5094 0.962624 22.4813 0.962624 21 1.14075Z" fill="black"/>
<path d="M31.7156 1.24387C31.4813 1.37513 31.2094 1.65638 31.0781 1.89075C30.8438 2.27512 30.7875 2.67825 30.0938 8.847C29.6813 12.447 29.3438 15.6532 29.3438 15.9814C29.3438 16.7407 29.475 16.9939 30.3656 17.9126C32.1375 19.7407 34.125 21.0907 36.0281 21.7657L36.75 22.0282V34.8251V47.6314L36.9469 48.0439C37.0688 48.2876 37.3031 48.5501 37.5281 48.7001C37.8563 48.9157 38.0063 48.9532 38.625 48.9532C39.2438 48.9532 39.3938 48.9157 39.7219 48.7001C39.9469 48.5501 40.1813 48.2876 40.3031 48.0439L40.5 47.6314V34.8157V22.0095L41.0438 21.8501C42.7406 21.3532 44.6813 20.1157 46.5375 18.3439C47.7656 17.172 48 16.797 48 16.0282C48 15.2501 46.7156 2.74387 46.5938 2.29388C46.2938 1.21575 44.9063 0.662624 43.8656 1.18763C43.3969 1.43137 42.9656 2.03138 42.8906 2.52825C42.8625 2.76263 43.1063 5.49075 43.4813 9.1095L44.1375 15.297L43.6031 15.7939C42.8719 16.4876 41.9906 17.1439 41.1844 17.5845L40.5 17.9501V10.1595C40.5 2.41575 40.5 2.36887 40.3031 1.95638C40.1813 1.71262 39.9469 1.45013 39.7219 1.30013C39.3938 1.0845 39.2438 1.047 38.625 1.047C38.0063 1.047 37.8563 1.0845 37.5281 1.30013C37.3031 1.45013 37.0688 1.71262 36.9469 1.95638C36.75 2.36887 36.75 2.41575 36.75 10.122C36.75 14.3876 36.7219 17.8751 36.6938 17.8751C36.4969 17.8751 34.9969 16.872 34.2281 16.2345C33.5063 15.6251 33.3188 15.4282 33.3 15.2033C33.2906 15.0439 33.5719 12.3064 33.9375 9.11887C34.6219 3.09075 34.6594 2.59388 34.4906 2.15325C34.3594 1.797 33.8625 1.29075 33.4969 1.13137C32.9906 0.915749 32.175 0.962624 31.7156 1.24387Z" fill="#F1C012"/>
<path d="M21.3281 8.68762C17.7094 9.32512 14.8406 10.8064 12.3188 13.3189C9.73126 15.9157 8.23126 18.9064 7.63126 22.6564C7.41563 24.0251 7.48126 26.7907 7.77188 28.2064C8.30626 30.8407 9.51563 33.4282 11.2125 35.5095C12.3281 36.8782 14.0906 38.3876 15.5625 39.222C16.1719 39.5782 16.3313 39.6251 16.8281 39.6251C18.1125 39.6157 19.0031 38.4626 18.6656 37.2251C18.5156 36.6626 18.2625 36.4001 17.2594 35.7345C16.7625 35.4064 16.0313 34.8626 15.6281 34.5251C13.5188 32.7157 11.9813 29.9407 11.475 27.0345C11.2875 25.9564 11.3438 23.4439 11.5781 22.3751C12.4031 18.6626 14.8594 15.4657 18.1781 13.7595C19.9031 12.8782 21.2625 12.5032 23.325 12.3439C24.7219 12.2314 25.1906 12.0532 25.575 11.472C25.7906 11.1439 25.8281 10.9939 25.8281 10.3751C25.8281 9.75637 25.7906 9.60637 25.575 9.27825C25.1625 8.65012 24.7219 8.50012 23.3813 8.5095C22.7719 8.51887 21.8438 8.59387 21.3281 8.68762Z" fill="black"/>
<path d="M45.2063 23.322C44.4282 23.7158 44.2595 24.1376 44.147 26.0314C44.0532 27.5876 43.8938 28.647 43.5376 30.0533C43.2657 31.0939 43.2563 31.4876 43.4907 31.9845C44.0438 33.2126 45.7501 33.4845 46.6501 32.4814C46.9501 32.1533 47.0251 31.9658 47.2876 30.9439C47.7657 29.0408 48.0001 27.2689 48.0001 25.6189C48.0001 24.2876 47.8407 23.8376 47.222 23.4251C46.697 23.0783 45.7782 23.0314 45.2063 23.322Z" fill="black"/>
<path d="M30.3281 36.0064C28.3406 37.0564 26.7938 37.5064 24.7781 37.6564C23.2781 37.7595 22.8188 37.9282 22.425 38.5282C22.2094 38.8564 22.1719 39.0064 22.1719 39.6251C22.1719 40.2439 22.2094 40.3939 22.425 40.722C22.8188 41.322 23.2969 41.5001 24.4594 41.5001C26.9062 41.5001 29.775 40.7314 31.9875 39.4845C33.1688 38.8282 33.4219 38.472 33.4219 37.5157C33.4219 36.9064 33.3938 36.7845 33.1406 36.4282C32.8031 35.9501 32.2875 35.6689 31.65 35.6126C31.2188 35.5751 31.0781 35.622 30.3281 36.0064Z" fill="black"/>
</svg>