<svg viewBox="0 0 46 48" fill="none" xmlns="http://www.w3.org/2000/svg">
<path d="M21.2188 0.150002C20.8813 0.21563 20.3563 0.365627 20.0469 0.478127C19.3438 0.731255 1.55938 10.0688 1.26875 10.35C0.89375 10.6875 0.6875 11.1938 0.6875 11.7844C0.6875 12.4594 0.95 12.9563 1.5125 13.35C1.84063 13.5844 2 13.6313 2.46875 13.6313L3.03125 13.6406V28.9406V44.25H2.40313C1.625 44.25 1.15625 44.4844 0.734375 45.075C0.490625 45.4313 0.453125 45.5625 0.453125 46.125C0.453125 46.6875 0.490625 46.8188 0.734375 47.175C0.89375 47.3906 1.19375 47.6719 1.39063 47.7844L1.76562 48H23H44.2344L44.6094 47.7844C44.8063 47.6719 45.1063 47.3906 45.2656 47.175C45.5094 46.8188 45.5469 46.6875 45.5469 46.125C45.5469 45.5625 45.5094 45.4313 45.2656 45.075C45.1063 44.8594 44.8063 44.5781 44.6094 44.4656L44.2344 44.25H39.1531H34.0719L34.0438 39.5813C34.0063 34.9875 34.0063 34.9125 33.7906 34.3125C33.4625 33.3844 33.0594 32.7281 32.3844 32.0531C31.6344 31.3125 30.7813 30.8156 29.7969 30.5625C29.1031 30.3844 28.7563 30.375 23 30.375C17.2438 30.375 16.8969 30.3844 16.2031 30.5625C14.1688 31.0875 12.5094 32.8031 12.0781 34.8375C11.9656 35.3531 11.9375 36.3938 11.9375 39.8625V44.25H9.40625H6.875V27.9563V11.6719L13.8875 7.99688C17.7406 5.97188 21.0875 4.22813 21.3313 4.125C22.2781 3.7125 23.7969 3.73125 24.7719 4.17188C25.0625 4.30313 28.4094 6.04688 32.2063 8.04375L39.1156 11.6719L39.1438 24.4406L39.1719 37.2L39.4531 37.6125C39.8563 38.175 40.3531 38.4375 41.0281 38.4375C41.8813 38.4375 42.5094 38.0344 42.8281 37.2938C42.95 36.9844 42.9688 35.5969 42.9688 25.2938V13.6406L43.5312 13.6313C44 13.6313 44.1594 13.5844 44.4875 13.35C45.05 12.9563 45.3125 12.4594 45.3125 11.7844C45.3125 11.1938 45.1156 10.6875 44.7313 10.3406C44.45 10.0875 26.7969 0.796879 26.0375 0.515629C24.7156 0.00937653 22.6063 -0.149998 21.2188 0.150002ZM29.1969 34.4344C29.4688 34.5844 29.7031 34.8094 29.8906 35.1094L30.1719 35.5594L30.2 39.9094L30.2281 44.25H23H15.7719L15.8 39.9094L15.8281 35.5594L16.1094 35.1094C16.2969 34.8094 16.5312 34.5844 16.8031 34.4344L17.2156 34.2188H23H28.7844L29.1969 34.4344Z" fill="black"/>
<path d="M13.0155 15.4313C12.0967 15.9094 11.703 16.9688 12.078 17.8875C12.2655 18.3281 12.5467 18.6281 12.9873 18.8531C13.3248 19.0219 13.6811 19.0312 22.9998 19.0312C32.3186 19.0312 32.6748 19.0219 33.0123 18.8531C34.278 18.2063 34.4186 16.5188 33.2842 15.6188L32.9186 15.3281L23.1123 15.3C14.3467 15.2813 13.2686 15.3 13.0155 15.4313Z" fill="#F1C012"/>
<path d="M13.0158 22.9406C11.469 23.7562 11.6377 25.9969 13.2877 26.4844C13.9815 26.6906 32.019 26.6906 32.7127 26.4844C34.344 26.0062 34.5408 23.7375 33.0127 22.9594C32.6752 22.7906 32.319 22.7812 22.9815 22.7812C14.3377 22.7906 13.269 22.8 13.0158 22.9406Z" fill="#F1C012"/>
</svg>
