<svg viewBox="0 0 48 48" fill="none" xmlns="http://www.w3.org/2000/svg">
<path d="M0.965625 0.1875C0.759375 0.299999 0.459375 0.5625 0.309375 0.768749C0.075 1.11562 0.046875 1.2375 0.046875 1.875C0.046875 2.69062 0.234375 3.06562 0.825 3.47812C1.13437 3.68437 1.26562 3.70312 2.67187 3.75C4.52812 3.80625 4.59375 3.84375 4.86562 4.75312C5.79375 7.90312 7.24687 13.2 10.1719 24.0469C13.8562 37.7344 13.8562 37.7344 14.7281 38.7656C14.9531 39.0187 15.3094 39.3844 15.525 39.5625C15.9 39.8812 15.9094 39.9 15.7781 40.1625C15.2344 41.2312 15.0562 42.6375 15.3187 43.8094C15.5625 44.8875 15.9562 45.5906 16.7719 46.4062C17.925 47.55 18.9937 48 20.5781 48C22.1625 48 23.2406 47.55 24.375 46.4062C25.5375 45.2531 26.0437 43.9125 25.9312 42.2812C25.9031 41.8406 25.8562 41.3906 25.8187 41.2687L25.7625 41.0625H29.25H32.7375L32.6812 41.3156C32.6531 41.4656 32.5969 41.9156 32.5687 42.3281C32.4562 43.8844 32.9719 45.2531 34.125 46.4062C35.25 47.5406 36.3469 48 37.9406 48C39.2719 48 40.3219 47.6437 41.2969 46.8469C42.7031 45.7031 43.4062 44.0812 43.2844 42.2906C43.2469 41.85 43.2 41.3906 43.1625 41.2781C43.1156 41.1187 43.1719 41.0437 43.425 40.9219C44.3344 40.4531 44.7281 39.675 44.5219 38.7094C44.3906 38.1094 43.8187 37.4719 43.2656 37.3219C43.0031 37.2469 39.3469 37.2188 31.0312 37.2188C18.2156 37.2094 18.825 37.2375 18.1406 36.7031C17.6437 36.3281 17.3531 35.8312 17.1 34.9125C16.9781 34.4531 16.875 34.0687 16.875 34.0594C16.875 34.05 22.1156 34.0219 28.5281 34.0031C41.5125 33.975 40.4531 34.0312 41.9906 33.3187C44.4094 32.2031 46.2375 29.6062 46.2562 27.2719C46.2656 26.5406 46.2375 26.4375 46.0031 26.0906C45.6375 25.5656 45.0937 25.2844 44.4281 25.2844C43.4062 25.2844 42.6937 25.9125 42.4781 27.0094C42.4125 27.3375 42.2437 27.8344 42.0937 28.125C41.8125 28.6781 41.0156 29.4937 40.4906 29.7656C39.675 30.1875 39.8719 30.1875 27.5531 30.1875H15.8719L13.4062 21.1125C12.0469 16.125 10.9219 11.9906 10.8937 11.925C10.8656 11.8312 13.9312 11.8125 26.5406 11.8312C44.3906 11.8594 42.6375 11.775 43.4812 12.7031C44.2219 13.5187 44.2687 13.8375 43.9594 16.5187C43.7437 18.45 43.7719 18.8531 44.1562 19.3875C44.9062 20.4187 46.5375 20.4 47.2781 19.35C47.5219 19.0031 47.5594 18.8062 47.775 17.0531C48.2531 13.1719 47.9062 11.6344 46.1719 9.89062C45.1219 8.85 43.9687 8.26875 42.525 8.07187C42.0281 7.99687 36.7031 7.96875 25.8 7.96875H9.79687L9.09375 5.50312C8.70937 4.15312 8.25937 2.76562 8.09062 2.42812C7.67812 1.60312 6.88125 0.853123 5.93437 0.393749L5.20312 0.046875L3.28125 0.0187492C1.49062 -0.00937653 1.33125 0.00937271 0.965625 0.1875ZM21.0187 41.1562C21.45 41.2781 22.0031 41.8781 22.0875 42.3281C22.2656 43.275 21.525 44.175 20.5781 44.175C19.2656 44.175 18.5625 42.6469 19.4344 41.6531C19.9125 41.1187 20.3531 40.9781 21.0187 41.1562ZM38.4656 41.1937C38.6344 41.2594 38.9062 41.4656 39.0656 41.6531C39.5625 42.225 39.5906 42.9656 39.1312 43.5656C38.3437 44.5969 36.8344 44.2875 36.4594 43.0312C36.3094 42.525 36.4219 42.0469 36.8156 41.6156C37.2844 41.1 37.8844 40.9406 38.4656 41.1937Z" fill="black"/>
<path d="M19.0781 15.8344C18.1406 16.0781 17.625 16.7156 17.625 17.6437C17.625 18.1594 19.3594 24.7594 19.6313 25.2844C20.2875 26.55 22.1906 26.5687 22.9406 25.3312C23.3719 24.6375 23.3531 24.5062 22.3125 20.6531C21.3469 17.1187 21.1781 16.5844 20.85 16.3031C20.3813 15.9 19.6219 15.6937 19.0781 15.8344Z" fill="#F1C012"/>
<path d="M28.0502 15.8438C27.6377 15.9375 27.169 16.275 26.8971 16.6688L26.6721 17.0063L26.644 20.8031C26.6252 23.3813 26.644 24.7219 26.719 24.9656C26.9627 25.8 27.7971 26.3156 28.7346 26.2219C29.4002 26.1563 29.8408 25.875 30.169 25.3313L30.4221 24.8906L30.4502 21.2156C30.469 18.675 30.4408 17.4094 30.3658 17.1375C30.2252 16.5938 29.6065 16.0031 29.0346 15.8625C28.5565 15.7406 28.4908 15.7406 28.0502 15.8438Z" fill="#F1C012"/>
<path d="M36.6093 15.7969C36.5624 15.8156 36.403 15.8531 36.253 15.8812C35.878 15.9656 35.278 16.5469 35.1186 16.9969C34.9218 17.5312 34.0124 24.3375 34.0874 24.6937C34.3311 25.9031 35.6811 26.5875 36.7968 26.0719C37.2468 25.8656 37.5374 25.5656 37.7249 25.1156C37.7999 24.9375 38.0811 23.1656 38.353 21.1875C38.8968 17.1281 38.8968 17.0812 38.278 16.3969C37.8843 15.9562 37.0405 15.6562 36.6093 15.7969Z" fill="#F1C012"/>
</svg>
