<svg viewBox="0 0 24 24" fill="none" xmlns="http://www.w3.org/2000/svg">
<path d="M9.51562 0.13125C9.34219 0.243752 8.84062 0.900002 6.79688 3.69375L4.28906 7.11563L2.45625 7.13437L0.628125 7.14844L0.435937 7.275C0.323437 7.35 0.20625 7.48125 0.145312 7.60312C0.0515625 7.80469 0.046875 7.86563 0.046875 9.9375C0.046875 12.0094 0.0515625 12.0703 0.145312 12.2719C0.20625 12.3938 0.323437 12.525 0.435937 12.6C0.604688 12.7125 0.679687 12.7266 1.10625 12.7406L1.58906 12.7594L1.61719 12.9516C1.63125 13.0594 1.85156 14.9016 2.10938 17.0484C2.36719 19.1906 2.60156 21.0469 2.62969 21.1734C2.93438 22.3922 3.85781 23.3859 5.1 23.8312L5.50781 23.9766H12.0703H18.6328L19.0734 23.8219C20.2875 23.4 21.1453 22.5047 21.4875 21.3094C21.7594 20.3719 21.5625 19.8047 20.8969 19.6406C20.4937 19.5375 20.0203 19.7344 19.8422 20.0766C19.8 20.1609 19.7391 20.3578 19.7016 20.5219C19.6125 20.9484 19.425 21.2953 19.1391 21.5672C18.825 21.8672 18.4641 22.0313 18.0094 22.0875C17.8031 22.1109 15.1641 22.125 11.8125 22.1156L5.97656 22.1016L5.70937 21.9938C5.10469 21.75 4.72031 21.3563 4.55156 20.8172C4.48594 20.6016 4.31719 19.3359 4.00781 16.7344C3.76406 14.6578 3.54844 12.9141 3.53906 12.8578L3.51562 12.75H10.8375H18.1594L18.3656 12.6516C18.4875 12.5906 18.6187 12.4734 18.6938 12.3609C18.8016 12.1969 18.8203 12.1219 18.8203 11.8125C18.8203 11.5031 18.8016 11.4281 18.6938 11.2641C18.6187 11.1516 18.4875 11.0344 18.3656 10.9734L18.1594 10.875H10.0406H1.92188V9.9375V9H12.0469H22.1719V9.9375V10.875H21.7828C21.2906 10.875 21.0422 10.9875 20.85 11.3016C20.7281 11.4984 20.7094 11.6062 20.4562 13.8516C20.1656 16.4109 20.1656 16.4391 20.4141 16.7625C20.6578 17.0859 21.1922 17.1984 21.5906 17.0203C21.8016 16.9219 22.0125 16.6828 22.0734 16.4672C22.0969 16.3922 22.2047 15.525 22.3172 14.5406L22.5187 12.75H22.9406C23.4422 12.75 23.7047 12.6469 23.8828 12.3844L24 12.2109V9.9375V7.66406L23.8828 7.49063C23.8219 7.39688 23.6766 7.27969 23.5641 7.22344C23.3672 7.12969 23.2922 7.125 21.6047 7.125H19.8516L17.6953 4.18594C14.5359 -0.117186 14.7844 0.206251 14.5453 0.0890636C14.3812 0.00937462 14.2781 -0.00468826 14.0437 0.00937462C13.6734 0.0328121 13.4109 0.196875 13.2656 0.487501C13.1531 0.721876 13.1391 1.10156 13.2375 1.32656C13.2703 1.41094 14.2312 2.74219 15.3703 4.28906L17.4375 7.10156L12.0844 7.11563C9.14062 7.12031 6.72656 7.11563 6.71719 7.10625C6.70781 7.09688 7.60781 5.85 8.72344 4.33125C9.83906 2.81719 10.8 1.49063 10.8562 1.3875C11.0812 0.998438 10.9594 0.46875 10.5797 0.168751C10.425 0.0421886 10.3547 0.0234375 10.0641 0.00937462C9.75469 -0.00468826 9.70781 0.00468826 9.51562 0.13125Z" fill="black"/>
<path d="M7.8374 14.7234C7.72021 14.7844 7.57959 14.9062 7.50928 15.0141L7.38271 15.2062L7.36865 17.3812C7.35459 19.5281 7.35928 19.5609 7.45771 19.7672C7.51865 19.8937 7.63115 20.025 7.74834 20.1C7.9124 20.2078 7.9874 20.2266 8.29678 20.2266C8.60615 20.2266 8.68115 20.2078 8.84521 20.1C8.95771 20.025 9.0749 19.8937 9.13584 19.7719C9.22959 19.5703 9.23428 19.5094 9.23428 17.4375C9.23428 15.3656 9.22959 15.3047 9.13584 15.1031C8.99053 14.8031 8.7374 14.6531 8.34834 14.6344C8.0999 14.625 7.99678 14.6391 7.8374 14.7234Z" fill="#F1C012"/>
<path d="M11.5874 14.7234C11.4702 14.7844 11.3296 14.9062 11.2593 15.0141L11.1327 15.2062L11.1187 17.3812C11.1046 19.5281 11.1093 19.5609 11.2077 19.7672C11.2687 19.8937 11.3812 20.025 11.4983 20.1C11.6624 20.2078 11.7374 20.2266 12.0468 20.2266C12.3562 20.2266 12.4312 20.2078 12.5952 20.1C12.7077 20.025 12.8249 19.8937 12.8858 19.7719C12.9796 19.5703 12.9843 19.5094 12.9843 17.4375C12.9843 15.3656 12.9796 15.3047 12.8858 15.1031C12.7405 14.8031 12.4874 14.6531 12.0983 14.6344C11.8499 14.625 11.7468 14.6391 11.5874 14.7234Z" fill="#F1C012"/>
<path d="M15.3374 14.7234C15.2202 14.7844 15.0796 14.9062 15.0093 15.0141L14.8827 15.2062L14.8687 17.3812C14.8546 19.5281 14.8593 19.5609 14.9577 19.7672C15.0187 19.8937 15.1312 20.025 15.2483 20.1C15.4124 20.2078 15.4874 20.2266 15.7968 20.2266C16.1062 20.2266 16.1812 20.2078 16.3452 20.1C16.4577 20.025 16.5749 19.8937 16.6358 19.7719C16.7296 19.5703 16.7343 19.5094 16.7343 17.4375C16.7343 15.3656 16.7296 15.3047 16.6358 15.1031C16.4905 14.8031 16.2374 14.6531 15.8483 14.6344C15.5999 14.625 15.4968 14.6391 15.3374 14.7234Z" fill="#F1C012"/>
</svg>