<svg viewBox="0 0 16 16" fill="none" xmlns="http://www.w3.org/2000/svg">
<path d="M8.00008 3.99996C8.36827 3.99996 8.66675 3.70148 8.66675 3.33329C8.66675 2.9651 8.36827 2.66663 8.00008 2.66663C7.63189 2.66663 7.33341 2.9651 7.33341 3.33329C7.33341 3.70148 7.63189 3.99996 8.00008 3.99996Z" stroke="black" stroke-width="2" stroke-linecap="round" stroke-linejoin="round"/>
<path d="M8.00008 8.66663C8.36827 8.66663 8.66675 8.36815 8.66675 7.99996C8.66675 7.63177 8.36827 7.33329 8.00008 7.33329C7.63189 7.33329 7.33341 7.63177 7.33341 7.99996C7.33341 8.36815 7.63189 8.66663 8.00008 8.66663Z" stroke="black" stroke-width="2" stroke-linecap="round" stroke-linejoin="round"/>
<path d="M8.00008 13.3333C8.36827 13.3333 8.66675 13.0348 8.66675 12.6666C8.66675 12.2984 8.36827 12 8.00008 12C7.63189 12 7.33341 12.2984 7.33341 12.6666C7.33341 13.0348 7.63189 13.3333 8.00008 13.3333Z" stroke="black" stroke-width="2" stroke-linecap="round" stroke-linejoin="round"/>
<path d="M12.6667 3.99996C13.0349 3.99996 13.3334 3.70148 13.3334 3.33329C13.3334 2.9651 13.0349 2.66663 12.6667 2.66663C12.2986 2.66663 12.0001 2.9651 12.0001 3.33329C12.0001 3.70148 12.2986 3.99996 12.6667 3.99996Z" stroke="black" stroke-width="2" stroke-linecap="round" stroke-linejoin="round"/>
<path d="M12.6667 8.66663C13.0349 8.66663 13.3334 8.36815 13.3334 7.99996C13.3334 7.63177 13.0349 7.33329 12.6667 7.33329C12.2986 7.33329 12.0001 7.63177 12.0001 7.99996C12.0001 8.36815 12.2986 8.66663 12.6667 8.66663Z" stroke="black" stroke-width="2" stroke-linecap="round" stroke-linejoin="round"/>
<path d="M12.6667 13.3333C13.0349 13.3333 13.3334 13.0348 13.3334 12.6666C13.3334 12.2984 13.0349 12 12.6667 12C12.2986 12 12.0001 12.2984 12.0001 12.6666C12.0001 13.0348 12.2986 13.3333 12.6667 13.3333Z" stroke="black" stroke-width="2" stroke-linecap="round" stroke-linejoin="round"/>
<path d="M3.33341 3.99996C3.7016 3.99996 4.00008 3.70148 4.00008 3.33329C4.00008 2.9651 3.7016 2.66663 3.33341 2.66663C2.96522 2.66663 2.66675 2.9651 2.66675 3.33329C2.66675 3.70148 2.96522 3.99996 3.33341 3.99996Z" stroke="black" stroke-width="2" stroke-linecap="round" stroke-linejoin="round"/>
<path d="M3.33341 8.66663C3.7016 8.66663 4.00008 8.36815 4.00008 7.99996C4.00008 7.63177 3.7016 7.33329 3.33341 7.33329C2.96522 7.33329 2.66675 7.63177 2.66675 7.99996C2.66675 8.36815 2.96522 8.66663 3.33341 8.66663Z" stroke="black" stroke-width="2" stroke-linecap="round" stroke-linejoin="round"/>
<path d="M3.33341 13.3333C3.7016 13.3333 4.00008 13.0348 4.00008 12.6666C4.00008 12.2984 3.7016 12 3.33341 12C2.96522 12 2.66675 12.2984 2.66675 12.6666C2.66675 13.0348 2.96522 13.3333 3.33341 13.3333Z" stroke="black" stroke-width="2" stroke-linecap="round" stroke-linejoin="round"/>
</svg>
