<svg viewBox="0 0 24 22" fill="none" xmlns="http://www.w3.org/2000/svg">
<path d="M5.67642 0.42975C3.0233 0.8985 0.881112 3.12506 0.192049 6.12506C0.0279866 6.82819 -0.0142009 7.37663 0.0139241 8.41256C0.0420491 9.50475 0.135799 10.0673 0.445174 10.9907C0.674862 11.6751 1.28424 12.9032 1.64049 13.4001C2.70924 14.9001 5.44205 17.2438 9.3983 20.0516C10.7624 21.0219 11.4702 21.5001 11.6483 21.5751C11.8686 21.6641 12.1733 21.6548 12.4124 21.5469C12.628 21.4485 13.978 20.5251 15.2717 19.5876C16.2467 18.8798 16.3311 18.7719 16.303 18.2704C16.2842 17.9094 16.1717 17.6985 15.9045 17.5157C15.7311 17.3985 15.3889 17.3469 15.1217 17.3938C15.0233 17.4126 14.6717 17.6329 14.1936 17.9751C13.7764 18.2798 13.1108 18.7532 12.717 19.0251L12.0092 19.5219L11.7327 19.3298C9.17799 17.5485 7.18111 16.0391 5.62486 14.7126C4.6733 13.9016 3.49205 12.6969 3.1733 12.2141C2.66705 11.4501 2.2358 10.4048 2.02955 9.45319C1.96392 9.13444 1.94517 8.8485 1.94517 8.04694C1.94986 7.11413 1.95924 7.00163 2.07174 6.54694C2.52174 4.761 3.52017 3.40163 4.90299 2.71256C5.54986 2.38444 5.9108 2.30475 6.72642 2.30944C7.32174 2.31413 7.49517 2.33288 7.87486 2.43131C8.99517 2.73131 10.0311 3.34069 11.0624 4.29694C11.5545 4.75631 11.6483 4.80788 11.9905 4.81256C12.342 4.81256 12.492 4.73288 12.9702 4.28756C13.7342 3.57038 14.6249 2.9985 15.492 2.661C17.367 1.92506 19.078 2.29069 20.428 3.70631C21.1499 4.47038 21.6374 5.38444 21.928 6.54694C22.0452 7.00631 22.0499 7.11413 22.0545 8.07038C22.0545 8.90475 22.0358 9.17663 21.9655 9.50006C21.7733 10.3907 21.3186 11.4688 20.8358 12.2001C20.5358 12.6501 19.6405 13.5969 18.8155 14.3329C18.1592 14.9188 18.0655 15.0735 18.103 15.5235C18.1311 15.8423 18.3139 16.1282 18.5858 16.2688C18.8155 16.3907 19.2702 16.4001 19.4764 16.2876C19.917 16.0485 21.6514 14.3423 22.2186 13.5876C22.617 13.0579 23.1186 12.1344 23.4139 11.3751C23.6295 10.8266 23.878 9.85163 23.9483 9.28913C24.0186 8.69381 24.0092 7.36256 23.9295 6.79069C23.5452 4.086 21.8999 1.78913 19.6592 0.832876C18.2717 0.24225 16.7202 0.20475 15.1264 0.734438C14.292 1.011 13.1811 1.62037 12.3983 2.22975C12.2436 2.35163 12.0889 2.46413 12.0608 2.48756C12.0233 2.50631 11.878 2.42194 11.6858 2.26725C10.6264 1.41413 9.29986 0.76725 8.05299 0.495375C7.46236 0.368813 6.22486 0.336 5.67642 0.42975Z" fill="black"/>
</svg>
