<svg viewBox="0 0 673 155" fill="none" xmlns="http://www.w3.org/2000/svg">
<path d="M64.7627 107H54.0388L41.2818 85.8456H16.9692L18.8858 75.4231H50.7478C52.3996 75.4231 54.0241 75.0103 55.6212 74.1848C57.2247 73.3249 58.6884 72.1726 60.0123 70.7279C61.3619 69.2832 62.5236 67.5977 63.4973 65.6714C64.4772 63.7108 65.1696 61.6297 65.5745 59.4283C65.9793 57.2268 66.0491 55.163 65.7839 53.2367C65.5187 51.3105 64.9738 49.6422 64.1491 48.2319C63.3566 46.7872 62.3136 45.6521 61.0201 44.8266C59.7266 44.001 58.2539 43.5883 56.6021 43.5883H20.288L8.62685 107H0.690402L14.2966 33.011H58.5472C61.283 33.011 63.7214 33.7162 65.8623 35.1265C68.0096 36.5024 69.7523 38.3942 71.0903 40.8021C72.4605 43.1755 73.3677 45.9617 73.8118 49.1606C74.2817 52.3596 74.1814 55.7822 73.5109 59.4283C72.9037 62.7304 71.9022 65.8606 70.5065 68.8188C69.1171 71.7426 67.4589 74.374 65.5318 76.713C63.611 79.0177 61.4888 80.9439 59.1652 82.4918C56.8737 84.0053 54.5062 85.02 52.0627 85.536L64.7627 107Z" fill="#0A0A0A"/>
<path d="M124.654 107H94.9212C91.9273 107 89.2532 106.243 86.899 104.73C84.5511 103.182 82.6367 101.101 81.1559 98.4866C79.7073 95.838 78.7377 92.7594 78.2473 89.2509C77.7632 85.708 77.888 81.9414 78.6218 77.9513L83.9637 48.9027H91.9002L86.5583 77.9513C86.0902 80.4967 85.999 82.8874 86.2847 85.1232C86.6025 87.3246 87.2259 89.2681 88.1548 90.9536C89.09 92.6047 90.2918 93.929 91.7602 94.9265C93.2607 95.8896 94.9628 96.3884 96.8663 96.4228H118.663L127.401 48.9027H135.338L124.654 107Z" fill="#0A0A0A"/>
<path d="M185 88.5286C184.531 91.074 183.727 93.4818 182.587 95.752C181.453 97.9879 180.099 99.9485 178.525 101.634C176.982 103.285 175.271 104.592 173.39 105.555C171.535 106.518 169.653 107 167.743 107H134.023L135.968 96.4228H169.688C170.488 96.4228 171.288 96.2164 172.086 95.8036C172.885 95.3909 173.621 94.8233 174.296 94.1009C174.971 93.3786 175.549 92.5531 176.029 91.6243C176.516 90.6612 176.861 89.6293 177.063 88.5286C177.259 87.4622 177.291 86.4475 177.158 85.4844C177.026 84.5213 176.755 83.6785 176.346 82.9562C175.937 82.2338 175.409 81.6663 174.762 81.2535C174.121 80.8063 173.401 80.5827 172.601 80.5827H150.766C149.114 80.5827 147.642 80.17 146.348 79.3444C145.055 78.5189 143.995 77.401 143.171 75.9907C142.378 74.546 141.849 72.8605 141.584 70.9342C141.319 69.008 141.389 66.9441 141.794 64.7427C142.199 62.5413 142.888 60.4774 143.861 58.5512C144.835 56.6249 145.981 54.9566 147.298 53.5463C148.648 52.1016 150.121 50.9665 151.718 50.141C153.316 49.3154 154.94 48.9027 156.592 48.9027H188.338L186.402 59.4283H154.656C153.546 59.4283 152.51 59.9443 151.546 60.9762C150.614 61.9737 150.008 63.2292 149.73 64.7427C149.458 66.2218 149.602 67.4773 150.16 68.5092C150.751 69.5068 151.601 70.0055 152.711 70.0055H174.546C176.456 70.0055 178.161 70.4871 179.662 71.4502C181.188 72.4133 182.416 73.7376 183.345 75.4231C184.299 77.1086 184.932 79.0693 185.244 81.3051C185.555 83.5409 185.474 85.9487 185 88.5286Z" fill="#0A0A0A"/>
<path d="M238.658 88.5286C238.19 91.074 237.386 93.4818 236.245 95.752C235.112 97.9879 233.757 99.9485 232.183 101.634C230.64 103.285 228.929 104.592 227.048 105.555C225.193 106.518 223.311 107 221.401 107H187.681L189.626 96.4228H223.346C224.146 96.4228 224.946 96.2164 225.744 95.8036C226.543 95.3909 227.28 94.8233 227.954 94.1009C228.629 93.3786 229.207 92.5531 229.687 91.6243C230.174 90.6612 230.519 89.6293 230.721 88.5286C230.917 87.4622 230.949 86.4475 230.817 85.4844C230.684 84.5213 230.413 83.6785 230.004 82.9562C229.595 82.2338 229.067 81.6663 228.42 81.2535C227.78 80.8063 227.059 80.5827 226.259 80.5827H204.424C202.772 80.5827 201.3 80.17 200.006 79.3444C198.713 78.5189 197.654 77.401 196.829 75.9907C196.036 74.546 195.508 72.8605 195.242 70.9342C194.977 69.008 195.047 66.9441 195.452 64.7427C195.857 62.5413 196.546 60.4774 197.52 58.5512C198.493 56.6249 199.639 54.9566 200.956 53.5463C202.306 52.1016 203.779 50.9665 205.377 50.141C206.974 49.3154 208.598 48.9027 210.25 48.9027H241.996L240.06 59.4283H208.314C207.205 59.4283 206.168 59.9443 205.204 60.9762C204.272 61.9737 203.667 63.2292 203.388 64.7427C203.116 66.2218 203.26 67.4773 203.818 68.5092C204.409 69.5068 205.26 70.0055 206.369 70.0055H228.204C230.114 70.0055 231.819 70.4871 233.32 71.4502C234.846 72.4133 236.074 73.7376 237.003 75.4231C237.957 77.1086 238.591 79.0693 238.902 81.3051C239.214 83.5409 239.132 85.9487 238.658 88.5286Z" fill="#0A0A0A"/>
<path d="M266.415 35.694C266.212 36.7947 265.868 37.8267 265.381 38.7898C264.9 39.7185 264.323 40.5441 263.648 41.2664C262.973 41.9888 262.236 42.5563 261.438 42.9691C260.639 43.3819 259.84 43.5883 259.04 43.5883C258.214 43.5883 257.477 43.3819 256.831 42.9691C256.184 42.5563 255.656 41.9888 255.247 41.2664C254.838 40.5441 254.564 39.7185 254.425 38.7898C254.292 37.8267 254.327 36.7947 254.529 35.694C254.725 34.6277 255.067 33.613 255.554 32.6499C256.041 31.6867 256.621 30.844 257.296 30.1216C257.971 29.3993 258.708 28.8317 259.506 28.419C260.311 27.9718 261.127 27.7482 261.953 27.7482C262.753 27.7482 263.473 27.9718 264.113 28.419C264.76 28.8317 265.288 29.3993 265.697 30.1216C266.106 30.844 266.377 31.6867 266.51 32.6499C266.642 33.613 266.611 34.6277 266.415 35.694ZM251.327 107H243.391L254.075 48.9027H262.011L251.327 107Z" fill="#0A0A0A"/>
<path d="M312.419 107H272.775C270.839 107 269.121 106.518 267.621 105.555C266.12 104.592 264.89 103.285 263.928 101.634C262.974 99.9485 262.341 97.9879 262.029 95.752C261.724 93.4818 261.805 91.074 262.273 88.5286C262.748 85.9487 263.552 83.5409 264.686 81.3051C265.82 79.0693 267.174 77.1086 268.749 75.4231C270.323 73.7376 272.038 72.4133 273.893 71.4502C275.747 70.4871 277.643 70.0055 279.578 70.0055H307.298L305.353 80.5827H277.633C276.807 80.5827 275.992 80.8063 275.187 81.2535C274.388 81.6663 273.652 82.2338 272.977 82.9562C272.302 83.6785 271.721 84.5213 271.234 85.4844C270.747 86.4475 270.406 87.4622 270.21 88.5286C270.008 89.6293 269.973 90.6612 270.105 91.6243C270.244 92.5531 270.518 93.3786 270.927 94.1009C271.337 94.8233 271.864 95.3909 272.511 95.8036C273.158 96.2164 273.894 96.4228 274.72 96.4228H306.427L311.769 67.3741C311.965 66.3078 311.984 65.2931 311.826 64.3299C311.693 63.3668 311.422 62.5241 311.013 61.8017C310.604 61.0794 310.076 60.5118 309.429 60.099C308.789 59.6519 308.069 59.4283 307.268 59.4283H275.561L277.497 48.9027H309.204C311.14 48.9027 312.858 49.3842 314.358 50.3474C315.859 51.3105 317.087 52.6348 318.041 54.3203C319.002 55.9713 319.639 57.9148 319.95 60.1506C320.262 62.3865 320.18 64.7943 319.706 67.3741L312.419 107Z" fill="#0A0A0A"/>
<path d="M331.466 107H323.53L334.214 48.9027H363.946C366.94 48.9027 369.611 49.6766 371.959 51.2245C374.313 52.738 376.228 54.819 377.702 57.4676C379.183 60.0818 380.165 63.1604 380.649 66.7034C381.14 70.2119 381.018 73.9612 380.284 77.9513L374.942 107H367.006L372.348 77.9513C372.816 75.4059 372.894 73.0153 372.583 70.7795C372.271 68.5436 371.648 66.6002 370.713 64.9491C369.784 63.2636 368.569 61.9393 367.069 60.9762C365.6 59.9786 363.914 59.4627 362.011 59.4283H340.214L331.466 107Z" fill="#0A0A0A"/>
<path d="M440.254 107H387.215L400.821 33.011H408.758L397.096 96.4228H442.199L440.254 107Z" fill="#F1C012"/>
<path d="M471.148 107H463.211L474.872 43.5883H446.804L448.75 33.011H512.822L510.877 43.5883H482.809L471.148 107Z" fill="#F1C012"/>
<path d="M578.918 70.0055C577.975 75.1307 576.47 79.9464 574.403 84.4525C572.361 88.9585 569.911 92.8798 567.052 96.2164C564.193 99.553 561.012 102.184 557.509 104.111C554.032 106.037 550.383 107 546.563 107H518.573L520.518 96.4228H548.508C551.244 96.4228 553.823 95.7348 556.244 94.3589C558.691 92.983 560.881 91.1084 562.814 88.7349C564.78 86.3271 566.457 83.5237 567.845 80.3248C569.266 77.0914 570.311 73.6516 570.981 70.0055C571.652 66.3594 571.868 62.9368 571.631 59.7379C571.419 56.5389 570.77 53.7527 569.684 51.3793C568.629 48.9715 567.132 47.0796 565.191 45.7037C563.283 44.2934 560.96 43.5883 558.224 43.5883H526.285L514.624 107H506.688L520.294 33.011H560.17C563.989 33.011 567.281 33.9914 570.043 35.952C572.837 37.8783 575.047 40.5269 576.673 43.8978C578.305 47.2344 579.313 51.1557 579.697 55.6618C580.114 60.1334 579.854 64.9147 578.918 70.0055Z" fill="#F1C012"/>
<path d="M336.067 25.8169C335.802 27.2623 335.345 28.6154 334.697 29.876C334.064 31.1198 333.309 32.2123 332.429 33.1535C331.566 34.0779 330.611 34.8091 329.567 35.3469C328.522 35.8848 327.47 36.1537 326.41 36.1537H308.042L308.992 30.9853H327.361C327.891 30.9853 328.413 30.8508 328.93 30.5819C329.458 30.313 329.942 29.9432 330.382 29.4726C330.822 29.002 331.2 28.4557 331.516 27.8338C331.835 27.1951 332.06 26.5228 332.189 25.8169C332.319 25.1109 332.34 24.447 332.253 23.8251C332.166 23.2032 331.989 22.657 331.722 22.1864C331.455 21.7158 331.107 21.346 330.677 21.0771C330.26 20.8081 329.787 20.6737 329.257 20.6737H310.888L311.839 15.5052H326.33C326.859 15.5052 327.382 15.3708 327.898 15.1019C328.427 14.8329 328.911 14.4632 329.351 13.9925C329.79 13.5219 330.168 12.9757 330.484 12.3538C330.804 11.7151 331.028 11.0428 331.158 10.3368C331.288 9.6309 331.309 8.96699 331.222 8.3451C331.137 7.7064 330.962 7.15174 330.695 6.68112C330.429 6.2105 330.081 5.84073 329.651 5.57181C329.234 5.30288 328.76 5.16842 328.23 5.16842H311.81L306.112 36.1537H302.234L308.883 0H329.181C330.24 0 331.192 0.27733 332.036 0.831989C332.883 1.36984 333.566 2.10939 334.087 3.05063C334.623 3.97506 334.977 5.06757 335.149 6.32816C335.333 7.58875 335.296 8.92497 335.036 10.3368C334.835 11.4293 334.525 12.463 334.106 13.4379C333.691 14.3959 333.205 15.2867 332.65 16.1103C333.342 16.4633 333.944 16.9591 334.458 17.5978C334.983 18.2365 335.396 18.9761 335.695 19.8165C336.007 20.6569 336.195 21.5897 336.259 22.615C336.338 23.6234 336.275 24.6907 336.067 25.8169Z" fill="#F1C012"/>
<path d="M366.609 21.9595C366.251 23.9092 365.636 25.7412 364.766 27.4556C363.896 29.17 362.863 30.6743 361.666 31.9685C360.485 33.2459 359.182 34.2628 357.757 35.0192C356.335 35.7587 354.89 36.1369 353.424 36.1537H347.465C346.006 36.1369 344.7 35.7587 343.55 35.0192C342.403 34.2628 341.467 33.2459 340.744 31.9685C340.036 30.6743 339.562 29.17 339.323 27.4556C339.083 25.7412 339.142 23.9092 339.501 21.9595C339.859 20.0098 340.474 18.1777 341.344 16.4633C342.217 14.7321 343.244 13.2278 344.425 11.9504C345.621 10.6562 346.931 9.63931 348.353 8.89976C349.779 8.14341 351.223 7.76523 352.686 7.76523H358.645C359.616 7.76523 360.525 7.93331 361.371 8.26947C362.217 8.60562 362.974 9.08465 363.641 9.70654C364.309 10.3284 364.884 11.0764 365.366 11.9504C365.852 12.8076 366.224 13.7656 366.484 14.8245C366.746 15.8666 366.892 16.9927 366.922 18.2029C366.951 19.4131 366.847 20.6653 366.609 21.9595ZM362.75 21.9595C362.979 20.7157 363.017 19.5475 362.865 18.455C362.713 17.3625 362.408 16.4129 361.951 15.6061C361.497 14.7825 360.904 14.1354 360.17 13.6648C359.453 13.1774 358.629 12.9252 357.699 12.9084H351.74C350.804 12.9252 349.881 13.1774 348.971 13.6648C348.078 14.1354 347.253 14.7825 346.496 15.6061C345.742 16.4129 345.088 17.3625 344.534 18.455C343.993 19.5475 343.608 20.7157 343.379 21.9595C343.15 23.2032 343.106 24.3714 343.245 25.4639C343.397 26.5564 343.701 27.5145 344.154 28.3381C344.611 29.1448 345.199 29.7919 345.916 30.2794C346.649 30.75 347.483 30.9853 348.416 30.9853H354.375C355.308 30.9853 356.221 30.75 357.115 30.2794C358.025 29.7919 358.856 29.1448 359.61 28.3381C360.367 27.5145 361.022 26.5564 361.576 25.4639C362.13 24.3714 362.521 23.2032 362.75 21.9595Z" fill="#F1C012"/>
<path d="M392.432 36.1537H386.908L380.569 25.4639L370.469 36.1537H364.926L378.537 22.0099L370.147 7.76523H375.689L392.432 36.1537ZM397.652 7.76523L386.237 19.7408L384.064 16.4381L392.128 7.76523H397.652Z" fill="#F1C012"/>
<path d="M564.201 71.0705L535.077 78.0973L572.836 104.176L569.287 149.928L605.758 122.076L648.174 139.589L632.955 96.2968L662.718 61.3684L616.842 62.4645L592.821 23.3644L584.246 52.0705" stroke="#0A0A0A" stroke-width="4"/>
</svg>
