<svg xmlns="http://www.w3.org/2000/svg" viewBox="0 0 100 100" shape-rendering="geometricPrecision" text-rendering="geometricPrecision" image-rendering="optimizeQuality" fill-rule="evenodd" clip-rule="evenodd"><defs><style>.fil0{fill:transparent}</style></defs><g id="whatsapp-wrp"><g id="whatsapp"><g id="outline"><path class="fil0" d="M85.43 14.35C76.42 5.34 63.97-.23 50.22-.23 22.72-.23.42 22.06.42 49.57c0 9.15 2.47 17.72 6.77 25.09l-.13-.23L0 100.23l26.39-6.92c6.88 3.81 15.07 6.06 23.8 6.06h.02C77.71 99.36 100 77.06 100 49.56c0-13.75-5.57-26.19-14.57-35.2v-.01zM50.21 90.96h-.02c-7.77 0-15.04-2.15-21.25-5.88l.19.11-1.51-.9-15.66 4.11 4.17-15.27-.98-1.56c-3.97-6.24-6.33-13.84-6.33-22 0-22.85 18.53-41.38 41.38-41.38 22.86 0 41.39 18.53 41.39 41.38 0 22.86-18.53 41.39-41.39 41.39h.01zm22.7-31c-1.24-.62-7.36-3.62-8.5-4.04-1.14-.42-1.97-.62-2.8.62-.83 1.25-3.21 4.05-3.94 4.88-.72.83-1.45.93-2.7.31-3.85-1.56-7.16-3.64-10.04-6.2l.03.03a37.76 37.76 0 01-6.82-8.45l-.09-.17c-.73-1.25-.08-1.92.54-2.54.56-.55 1.25-1.45 1.87-2.18.48-.6.9-1.28 1.22-2.02l.02-.06c.15-.29.23-.63.23-.99 0-.44-.12-.85-.34-1.19l.01.01c-.32-.63-2.8-6.75-3.84-9.24-1.01-2.43-2.04-2.1-2.8-2.14-.72-.03-1.55-.04-2.38-.04-1.33.04-2.5.63-3.31 1.55l-.01.01a13.932 13.932 0 00-4.35 10.13v.26-.01c.44 4.91 2.28 9.32 5.12 12.92l-.04-.05C35.36 59.33 42.52 65.71 50.93 70l.31.15c1.84.83 4.19 1.71 6.6 2.47l.5.14c1.48.47 3.18.74 4.95.74 1.02 0 2.01-.09 2.98-.26l-.1.01c3.58-.74 6.55-2.9 8.36-5.86l.03-.05c.55-1.23.88-2.66.88-4.16 0-.62-.06-1.23-.16-1.82l.01.06c-.31-.51-1.14-.82-2.39-1.45l.01-.01z"/><path class="fil0" d="M51.17 5.76c25.16 0 45.55 19.59 45.55 43.76 0 24.16-20.39 43.75-45.55 43.75-9.66 0-18.62-2.88-25.99-7.81L8.64 92.12l5.64-16.91c-5.45-7.22-8.67-16.09-8.67-25.69 0-24.17 20.4-43.76 45.56-43.76z"/></g><path d="M83.43 16.37C74.92 7.87 63.18 2.61 50.21 2.61c-25.95 0-46.99 21.03-46.99 46.98 0 8.64 2.33 16.72 6.39 23.68l-.12-.22-6.66 24.34 24.9-6.53c6.48 3.6 14.22 5.71 22.45 5.71h.02c25.94 0 46.97-21.04 46.97-46.99 0-12.97-5.25-24.7-13.75-33.21h.01zM50.2 88.64h-.02c-7.33 0-14.19-2.02-20.05-5.54l.18.1-1.43-.85-14.77 3.88 3.94-14.41-.93-1.48c-3.75-5.88-5.97-13.05-5.97-20.75 0-21.56 17.48-39.04 39.04-39.04s39.05 17.48 39.05 39.04c0 21.57-17.48 39.05-39.05 39.05h.01zM71.61 59.4c-1.17-.59-6.94-3.42-8.02-3.82-1.07-.39-1.86-.58-2.64.59-.78 1.18-3.03 3.82-3.71 4.6-.69.79-1.38.88-2.55.3-3.63-1.47-6.76-3.44-9.47-5.86l.03.03a35.481 35.481 0 01-6.44-7.96l-.09-.17c-.68-1.17-.07-1.81.52-2.39.52-.53 1.17-1.37 1.76-2.06.46-.56.85-1.21 1.15-1.9l.02-.06c.14-.27.22-.59.22-.93 0-.42-.12-.8-.32-1.13v.01c-.29-.59-2.64-6.37-3.62-8.72-.95-2.29-1.92-1.98-2.64-2.01-.68-.04-1.46-.04-2.25-.04-1.25.03-2.36.59-3.12 1.46v.01c-2.54 2.4-4.11 5.8-4.11 9.55v.25-.01c.42 4.64 2.15 8.8 4.83 12.19l-.04-.05c5.07 7.52 11.83 13.54 19.76 17.59l.29.13c1.73.79 3.95 1.63 6.22 2.34l.47.13c1.4.45 3.01.7 4.68.7.96 0 1.9-.08 2.81-.25l-.1.02c3.38-.71 6.18-2.75 7.89-5.53l.03-.05c.52-1.16.83-2.51.83-3.93 0-.58-.06-1.16-.15-1.71l.01.06c-.29-.49-1.08-.78-2.25-1.37v-.01z" fill="#000"/></g></g></svg>