<?xml version="1.0" encoding="UTF-8"?>
<!DOCTYPE svg PUBLIC "-//W3C//DTD SVG 1.1//EN" "http://www.w3.org/Graphics/SVG/1.1/DTD/svg11.dtd">
<svg xmlns="http://www.w3.org/2000/svg" xml:space="preserve" version="1.1" style="shape-rendering:geometricPrecision; text-rendering:geometricPrecision; image-rendering:optimizeQuality; fill-rule:evenodd; clip-rule:evenodd"
viewBox="0 0 1860 1860"
 xmlns:xlink="http://www.w3.org/1999/xlink">
 <defs>
  <style type="text/css">
   <![CDATA[
    .fil0 {fill:#FF9800}
    .fil1 {fill:white}
   ]]>
  </style>
 </defs>
 <g id="Layer_x0020_1">
  <g id="_1928301069328">
   <path class="fil0" d="M1860 1601.67c0,144.66 -113.67,258.33 -258.33,258.33l-1343.34 0c-144.66,0 -258.33,-113.67 -258.33,-258.33l0 -1343.34c0,-144.66 113.67,-258.33 258.33,-258.33l1343.34 0c144.66,0 258.33,113.67 258.33,258.33l0 1343.34z"/>
   <path class="fil1" d="M1079.83 1260.67c77.5,-15.5 149.84,-46.5 211.84,-87.84 51.66,-31 67.16,-98.16 36.16,-149.83 -31,-51.67 -98.16,-67.17 -149.83,-36.17 -149.83,93 -346.17,93 -496,0 -51.67,-31 -118.83,-15.5 -149.83,36.17 -31,51.67 -15.5,118.83 36.16,149.83 67.17,41.34 139.5,72.34 211.84,87.84l-206.67 206.66c-41.33,41.34 -41.33,108.5 0,155 20.67,20.67 46.5,31 77.5,31 25.83,0 56.83,-10.33 77.5,-31l201.5 -201.5 201.5 201.5c41.33,41.34 108.5,41.34 155,0 41.33,-41.33 41.33,-108.5 0,-155 0,0 -206.67,-206.66 -206.67,-206.66zm-149.83 -1054c-201.5,0 -361.67,160.16 -361.67,361.66 0,201.5 160.17,361.67 361.67,361.67 201.5,0 361.67,-160.17 361.67,-361.67 0,-201.5 -160.17,-361.66 -361.67,-361.66zm0 516.66c-87.83,0 -155,-67.16 -155,-155 0,-87.83 67.17,-155 155,-155 87.83,0 155,67.17 155,155 0,87.84 -67.17,155 -155,155z"/>
  </g>
 </g>
</svg>
