<?xml version="1.0" encoding="UTF-8"?>
<!DOCTYPE svg PUBLIC "-//W3C//DTD SVG 1.1//EN" "http://www.w3.org/Graphics/SVG/1.1/DTD/svg11.dtd">
<svg xmlns="http://www.w3.org/2000/svg" xml:space="preserve" version="1.1" style="shape-rendering:geometricPrecision; text-rendering:geometricPrecision; image-rendering:optimizeQuality; fill-rule:evenodd; clip-rule:evenodd"
viewBox="0 0 2480 2480"
 xmlns:xlink="http://www.w3.org/1999/xlink">
 <defs>
  <style type="text/css">
   <![CDATA[
    .fil1 {fill:#FEFEFE}
    .fil2 {fill:#0B1C37}
    .fil3 {fill:#F41240}
    .fil0 {fill:white}
   ]]>
  </style>
 </defs>
 <g id="Layer_x0020_1">
  <path class="fil0" d="M542.61 1808.81c-0.1,-367.28 0.04,-734.51 -0.04,-1101.74 332.04,0 664.09,0 996.18,0 48.52,0.65 97.49,4.45 144.34,17.96 55.07,17.96 106.11,52.97 136.06,103.36 37.79,59.94 43.94,133.14 44.76,202.27 -0.87,65.35 3.32,131.17 -7.36,196 -8.11,51.75 -24.15,105.02 -60.51,144.17 -42.28,46.37 -104.41,68.17 -164.91,77.99 88.8,119.92 177.38,239.98 265.96,360.04 -102.88,-0.18 -205.72,-0.1 -308.59,-0.1 -81.13,-119.17 -160.25,-239.97 -242.16,-358.42 -175.77,-0.48 -351.63,-0.09 -527.4,-0.17 -0.44,119.53 0.05,239.1 -0.26,358.69 -92.03,-0.22 -184.05,-0.05 -276.07,-0.05l0 0 0 0zm276.16 -858.79c-0.22,85.74 0.39,171.5 -0.31,257.24 192.07,1.39 384.19,0.18 576.26,0.56 38.32,-0.34 76.64,0.83 114.91,-0.74 19.84,-1.56 41.55,-3.44 57.72,-16.34 16.22,-15.08 20.1,-38.41 20.84,-59.5 0.21,-33.49 -0.05,-66.96 0.13,-100.49 -0.04,-21.54 -4.27,-44.86 -19.48,-61.12 -19.1,-16.17 -45.43,-18.44 -69.4,-19.61 -226.91,-0.1 -453.77,-0.04 -680.67,0l0 0z"/>
  <rect class="fil1" width="2480" height="2480" rx="500.08" ry="472.38"/>
  <g id="_1928380562144">
   <path class="fil2" d="M748.56 901.68c264.72,-0.05 529.39,-0.11 794.12,0 27.97,1.37 58.68,4.02 80.96,22.88 17.75,18.97 22.68,46.19 22.73,71.31 -0.2,39.11 0.1,78.17 -0.14,117.24 -0.87,24.61 -5.4,51.82 -24.32,69.41 -18.86,15.05 -44.2,17.25 -67.34,19.07 -44.65,1.83 -89.36,0.46 -134.06,0.87 -224.08,-0.45 -448.22,0.96 -672.3,-0.66 0.81,-100.04 0.09,-200.08 0.35,-300.12l0 0z"/>
   <path class="fil2" d="M607.89 134.66c147.38,-4.3 294.87,-2.47 442.3,-2.97 196.73,0 393.42,0.04 590.1,0 107.02,1.51 214.32,-1.61 321.01,8.97 52.32,5.67 105.51,15.01 152.51,39.87 82.22,42.07 149.73,111.64 190.34,194.48 22.69,48.58 31.3,102.22 36.29,155.18 9.47,106.7 6.36,213.85 7.96,320.82 -0.04,259.36 -0.04,518.75 0,778.16 -1.65,109.99 1.7,220.31 -8.83,329.97 -4.95,46.32 -12.59,93.11 -31.22,136.14 -40.74,90.63 -114.62,165.47 -203.73,209.04 -86.56,38.68 -183.56,38.78 -276.52,42.39 -213.49,2.65 -427.06,1.19 -640.59,1.61 -135.77,-0.28 -271.57,0.54 -407.33,-0.61 -76.45,0.14 -152.98,-0.17 -229.28,-5.48 -55.84,-4.4 -112.51,-11.36 -164.55,-33.11 -91,-40.5 -166.35,-114.33 -210.2,-203.59 -33.09,-71.5 -37.3,-151.74 -41.37,-229.15 -4.95,-175.4 -2.48,-350.94 -3.11,-526.38 -0.05,-172.48 0.04,-345 -0.05,-517.48 1.42,-94.7 -0.78,-189.54 6.41,-284.03 4.35,-54.37 11.22,-109.62 32.18,-160.42 40.19,-91.92 114.57,-167.9 204.46,-212.07 72.83,-33.37 154.44,-37.45 233.22,-41.34l0 0 0 0zm1349.47 269.33c-44.17,9.06 -82.57,40.06 -102.26,80.34 -21.51,44.03 -19.21,98.59 6.28,140.47 34.1,58.64 110.77,87.43 174.81,64.14 73.01,-22.93 117.86,-108.45 94.38,-181.55 -19.17,-72.68 -100.06,-120.84 -173.21,-103.4l0 0 0 0zm-1449.62 1433.26c96.62,0 193.24,-0.18 289.88,0.05 0.32,-125.57 -0.19,-251.12 0.27,-376.63 184.55,0.09 369.21,-0.32 553.76,0.19 86.01,124.37 169.09,251.2 254.27,376.34 108.02,0 216,-0.09 324.03,0.1 -93.02,-126.06 -186.03,-252.13 -279.27,-378.05 63.53,-10.3 128.76,-33.19 173.17,-81.89 38.17,-41.1 55.01,-97.04 63.52,-151.37 11.22,-68.07 6.83,-137.18 7.74,-205.79 -0.87,-72.6 -7.32,-149.46 -47.01,-212.39 -31.44,-52.92 -85.04,-89.67 -142.85,-108.54 -49.2,-14.18 -100.61,-18.17 -151.56,-18.85 -348.7,0 -697.35,0 -1046,0 0.09,385.59 -0.05,771.19 0.05,1156.82l0 0.01z"/>
   <path class="fil3" d="M1957.36 403.99c73.15,-17.44 154.04,30.72 173.21,103.4 23.48,73.1 -21.37,158.62 -94.38,181.55 -64.04,23.29 -140.71,-5.5 -174.81,-64.14 -25.49,-41.88 -27.79,-96.44 -6.28,-140.47 19.69,-40.28 58.09,-71.28 102.26,-80.34l0 0z"/>
  </g>
 </g>
</svg>
