<?xml version="1.0" encoding="UTF-8"?>
<!DOCTYPE svg PUBLIC "-//W3C//DTD SVG 1.1//EN" "http://www.w3.org/Graphics/SVG/1.1/DTD/svg11.dtd">
<svg xmlns="http://www.w3.org/2000/svg" xml:space="preserve" version="1.1" style="shape-rendering:geometricPrecision; text-rendering:geometricPrecision; image-rendering:optimizeQuality; fill-rule:evenodd; clip-rule:evenodd"
viewBox="0 0 2480 2480"
 xmlns:xlink="http://www.w3.org/1999/xlink">
 <defs>
  <style type="text/css">
   <![CDATA[
    .fil2 {fill:#A9C9DD}
    .fil1 {fill:#C8DAEA}
    .fil0 {fill:url(#id0)}
    .fil3 {fill:url(#id1)}
   ]]>
  </style>
  <linearGradient id="id0" gradientUnits="userSpaceOnUse" x1="-7017.96" y1="5497.72" x2="-7125.8" y2="5263.28">
   <stop offset="0" style="stop-opacity:1; stop-color:#37AEE2"/>
   <stop offset="1" style="stop-opacity:1; stop-color:#1E96C8"/>
  </linearGradient>
  <linearGradient id="id1" gradientUnits="userSpaceOnUse" x1="1372.12" y1="1165.24" x2="1649.11" y2="723.45">
   <stop offset="0" style="stop-opacity:1; stop-color:#EFF7FC"/>
   <stop offset="1" style="stop-opacity:1; stop-color:white"/>
  </linearGradient>
 </defs>
 <g id="Layer_x0020_1">
  <g id="_2443814104464">
   <rect class="fil0" x="5.56" y="5.56" width="2468.87" height="2468.87" rx="246.89" ry="240.03"/>
   <g>
    <path id="path2993" class="fil1" d="M1033.59 1809.48c-44.33,0 -36.37,-17.05 -52.29,-59.1l-129.58 -427.39 804.76 -502.41 94.34 25.01 -78.42 213.69 -638.81 750.2z"/>
    <path id="path2989" class="fil2" d="M1033.59 1809.48c34.1,0 48.87,-15.91 68.2,-34.1 29.55,-28.41 409.2,-397.83 409.2,-397.83l-233.02 -56.83 -215.97 136.4 -28.41 341 0 11.36z"/>
    <path id="path2991" class="fil3" d="M1056.32 1461.66l550.15 405.79c62.51,34.1 107.98,17.05 123.89,-57.97l223.93 -1054.82c22.73,-92.07 -35.24,-132.99 -95.48,-105.71l-1313.99 506.95c-89.8,36.37 -88.66,86.39 -15.91,107.98l337.59 105.71 780.89 -492.17c36.37,-22.74 70.47,-10.23 43.19,14.77l-634.26 569.47z"/>
   </g>
  </g>
 </g>
</svg>
