<?xml version="1.0" standalone="no"?>
<!DOCTYPE svg PUBLIC "-//W3C//DTD SVG 20010904//EN"
 "http://www.w3.org/TR/2001/REC-SVG-20010904/DTD/svg10.dtd">
<svg version="1.0" xmlns="http://www.w3.org/2000/svg"
 width="700.000000pt" height="700.000000pt" viewBox="0 0 700.000000 700.000000"
 preserveAspectRatio="xMidYMid meet">
<metadata>
Created by potrace 1.14, written by Peter Selinger 2001-2017
</metadata>
<g transform="translate(0.000000,700.000000) scale(0.100000,-0.100000)"
fill="#000000" stroke="none">
<path d="M1140 4889 c0 -10 -496 -2715 -505 -2756 l-5 -23 149 0 150 0 10 53
c6 28 101 542 211 1142 110 600 205 1114 211 1143 l10 52 708 0 c775 0 765 1
847 -60 98 -71 154 -198 162 -361 14 -307 -153 -616 -397 -737 l-75 -37 -650
-5 -650 -5 -32 -175 c-18 -96 -33 -185 -33 -197 l-1 -23 458 0 457 0 239 -395
238 -395 200 0 c156 0 199 3 195 13 -2 6 -108 187 -235 401 l-230 389 70 24
c140 47 236 110 363 237 257 258 406 640 392 1006 -6 164 -29 259 -93 390 -82
167 -225 286 -382 319 -73 15 -1782 16 -1782 0z"/>
</g>
</svg>
