<svg viewBox="0 0 48 48" fill="none" xmlns="http://www.w3.org/2000/svg">
<path d="M32.9532 0.044342C32.6063 0.19434 32.0907 0.766216 32.0063 1.08496C31.9782 1.21622 31.922 1.31934 31.8845 1.31934C31.8563 1.31934 31.4907 1.21622 31.0782 1.08496C27.8626 0.0818405 23.7657 -0.161907 20.2501 0.438091C17.9251 0.831841 15.8251 1.51622 13.6407 2.58496C9.7782 4.47872 6.60008 7.26309 4.21883 10.8537C0.740706 16.085 -0.534294 22.3475 0.609456 28.5537C0.890706 30.0537 1.35008 31.61 1.97821 33.2037C2.82196 35.3131 3.21571 35.7818 4.25633 35.885C5.31571 35.9975 6.21571 35.2568 6.33758 34.16C6.39383 33.7475 6.33758 33.5693 5.83133 32.3975C5.12821 30.7568 4.75321 29.585 4.45321 28.1131C3.85321 25.1318 3.91883 22.2162 4.65008 19.31C6.53446 11.7725 12.6001 5.94122 20.2126 4.36622C23.147 3.75684 26.447 3.84122 29.297 4.58184C29.9438 4.75059 29.9532 4.75997 29.9251 5.05059C29.8501 5.79122 30.3001 6.61622 30.9657 6.96309C31.322 7.15059 31.5845 7.16934 34.0032 7.25372L36.6376 7.34747L37.097 7.12247C37.9313 6.70997 38.3532 5.71622 38.0626 4.83497C37.9501 4.49747 35.6251 0.94434 35.2126 0.494343C34.7345 -0.049408 33.647 -0.255657 32.9532 0.044342Z" fill="#F1C012"/>
<path d="M21.9001 8.29687C19.3126 8.71875 16.8376 9.76875 14.7658 11.3344C13.9408 11.9531 12.4314 13.4437 11.8126 14.25C10.322 16.2 9.34702 18.3094 8.7939 20.775C8.61577 21.5906 8.58765 21.975 8.58765 23.9531C8.58765 25.9312 8.61577 26.3156 8.7939 27.1312C9.47827 30.1875 10.9033 32.85 13.0126 34.9969C15.2908 37.3219 17.9626 38.7844 21.2158 39.4875C22.0314 39.6656 22.472 39.6937 24.2345 39.7031C26.597 39.7031 27.4314 39.5906 29.2783 39C30.4876 38.6062 30.9376 38.325 31.2189 37.7812C31.4251 37.3687 31.472 36.5531 31.3033 36.1219C31.097 35.5781 30.2908 34.9781 29.7564 34.9688H29.5501L29.7845 34.3406C30.3658 32.7281 30.9283 30.0656 31.1251 27.9375C31.1814 27.3469 31.247 26.6344 31.2751 26.3625L31.322 25.875H33.7689H36.2064L36.1408 26.2125C35.9908 27.0281 35.5783 28.2469 35.1376 29.175C34.697 30.1125 34.6689 30.2062 34.7064 30.7781C34.7814 31.9406 35.522 32.5875 36.6939 32.5125C37.6033 32.4562 37.9314 32.1937 38.5126 31.0594C40.4158 27.3469 40.7251 22.9875 39.3751 18.9281C37.6033 13.5844 33.1501 9.64687 27.5064 8.42812C26.297 8.16562 23.1751 8.09062 21.9001 8.29687ZM24.8251 12.4125C25.247 12.8719 25.8189 13.9312 26.1845 14.9531C26.672 16.3219 27.197 18.9375 27.3283 20.6719C27.3564 21.0844 27.4033 21.5625 27.4314 21.7219L27.4783 22.0312H24.3658H21.2533L21.3189 21.1594C21.5345 18.2437 22.2189 15.3656 23.1095 13.5656C23.4564 12.8531 24.122 12 24.3283 12C24.3939 12 24.6189 12.1875 24.8251 12.4125ZM18.7033 14.1844C18.0939 16.0875 17.597 18.8344 17.4751 20.9719L17.4095 22.0312H14.9533H12.497L12.5814 21.5344C13.0126 19.125 14.6814 16.3969 16.772 14.6812C17.2689 14.2687 18.8626 13.2187 18.9845 13.2187C19.0033 13.2187 18.872 13.65 18.7033 14.1844ZM30.4876 13.6781C32.447 14.8219 34.247 16.8187 35.2501 18.9656C35.597 19.6969 36.0095 20.9531 36.1408 21.6937L36.2064 22.0312H33.7689H31.322L31.2751 21.5344C31.247 21.2719 31.1814 20.5594 31.1251 19.9688C30.9376 17.9719 30.3845 15.2531 29.8689 13.7906C29.7845 13.5656 29.7189 13.3687 29.7189 13.35C29.7189 13.2562 29.9064 13.3406 30.4876 13.6781ZM17.4751 26.925C17.597 29.0719 18.0939 31.8187 18.7033 33.7312L19.0126 34.6969L18.4783 34.3969C16.5001 33.2906 14.7845 31.5094 13.7064 29.4469C13.2001 28.4906 12.7314 27.1875 12.5814 26.3625L12.497 25.875H14.9533H17.4095L17.4751 26.925ZM27.4126 26.3625C27.0376 30.1969 26.522 32.475 25.5939 34.3031C25.2095 35.0812 24.5533 35.9062 24.3283 35.9062C24.122 35.9062 23.4564 35.0531 23.1095 34.3406C22.2189 32.5406 21.5345 29.6625 21.3189 26.7375L21.2533 25.875H24.3564H27.4595L27.4126 26.3625Z" fill="black"/>
<path d="M42.797 12.0912C42.047 12.4287 41.5408 13.31 41.6627 14.06C41.6908 14.2381 41.9064 14.8006 42.1314 15.3256C43.922 19.3287 44.3908 23.4068 43.5377 27.635C42.797 31.385 40.9314 34.8912 38.2127 37.685C36.422 39.5225 34.8939 40.6287 32.6158 41.7631C28.3033 43.91 23.3814 44.4256 18.7033 43.2443L18.047 43.0756L17.9908 42.4475C17.9252 41.7068 17.6345 41.21 17.0439 40.8818C16.6689 40.6662 16.5189 40.6568 14.0064 40.5725L11.3627 40.4787L10.9127 40.7037C10.2377 41.0412 9.90953 41.51 9.86266 42.1943C9.84391 42.5037 9.84391 42.86 9.88141 42.9818C9.94703 43.2631 12.3658 46.8818 12.7877 47.3412C13.172 47.7537 13.5658 47.9131 14.2033 47.9131C15.0283 47.9131 15.7689 47.4162 15.9845 46.7131C16.0595 46.46 16.0127 46.46 16.922 46.7412C17.8314 47.0225 19.6033 47.3975 20.8127 47.5568C21.9658 47.7068 25.472 47.7068 26.6252 47.5568C36.6283 46.235 44.5877 39.2131 47.072 29.5381C47.5783 27.5318 47.7564 26.0787 47.7564 23.6787C47.7564 21.2131 47.6345 20.0975 47.1002 17.9131C46.5939 15.8506 45.497 13.0662 44.972 12.485C44.4752 11.9412 43.5095 11.7631 42.797 12.0912Z" fill="#F1C012"/>
</svg>
