<svg width="48" height="48" viewBox="0 0 48 48" fill="none" xmlns="http://www.w3.org/2000/svg">
<g clip-path="url(#clip0_140_27)">
<path d="M22.4532 0.178102C20.5313 0.740602 19.0125 2.28748 18.5157 4.1906C18.3282 4.89373 18.3375 6.33748 18.525 7.05935C19.0219 8.9906 20.6344 10.6031 22.5563 11.1C23.2969 11.2875 24.6938 11.2969 25.4344 11.1C27.3844 10.5937 28.9688 9.00935 29.475 7.05935C29.6719 6.3281 29.6719 4.92185 29.475 4.1906C28.9688 2.2406 27.3844 0.656228 25.4344 0.149978C24.6657 -0.0468969 23.1844 -0.0375223 22.4532 0.178102ZM24.825 4.02185C25.4532 4.3406 25.7813 4.89373 25.7813 5.62498C25.7813 6.6656 25.0407 7.40623 24 7.40623C22.9594 7.40623 22.2188 6.6656 22.2188 5.62498C22.2188 4.58435 22.9407 3.8531 23.9813 3.84373C24.2907 3.84373 24.6094 3.90935 24.825 4.02185Z" fill="#F1C012"/>
<path d="M7.82816 3.9281C5.90629 4.4906 4.38754 6.03748 3.89066 7.9406C3.70316 8.64373 3.71254 10.0875 3.90004 10.8094C4.40629 12.7594 5.99066 14.3437 7.94066 14.85C8.68129 15.0469 10.0782 15.0375 10.8188 14.85C12.7407 14.3531 14.3532 12.7406 14.85 10.8094C15.0469 10.0781 15.0469 8.67185 14.85 7.9406C14.3438 5.9906 12.7594 4.40623 10.8094 3.89998C10.0407 3.7031 8.55941 3.71248 7.82816 3.9281ZM10.2 7.77185C10.8282 8.0906 11.1563 8.64373 11.1563 9.37498C11.1563 10.4156 10.4157 11.1562 9.37504 11.1562C8.33441 11.1562 7.59379 10.4156 7.59379 9.37498C7.59379 8.33435 8.31566 7.6031 9.35629 7.59373C9.66566 7.59373 9.98441 7.65935 10.2 7.77185Z" fill="black"/>
<path d="M37.0782 3.9281C35.1563 4.4906 33.6375 6.03748 33.1407 7.9406C32.9532 8.64373 32.9625 10.0875 33.15 10.8094C33.6563 12.7594 35.2407 14.3437 37.1907 14.85C37.9313 15.0469 39.3282 15.0375 40.0688 14.85C41.9907 14.3531 43.6032 12.7406 44.1 10.8094C44.2969 10.0781 44.2969 8.67185 44.1 7.9406C43.5938 5.9906 42.0094 4.40623 40.0594 3.89998C39.2907 3.7031 37.8094 3.71248 37.0782 3.9281ZM39.45 7.77185C40.0782 8.0906 40.4063 8.64373 40.4063 9.37498C40.4063 10.4156 39.6657 11.1562 38.625 11.1562C37.5844 11.1562 36.8438 10.4156 36.8438 9.37498C36.8438 8.33435 37.5657 7.6031 38.6063 7.59373C38.9157 7.59373 39.2344 7.65935 39.45 7.77185Z" fill="black"/>
<path d="M21.3469 13.1812C18.9 13.5562 17.2125 14.3625 15.75 15.8344C14.9813 16.6031 14.7844 16.8656 14.4188 17.625C13.6219 19.2656 13.6407 19.05 13.6407 25.5469V31.2656L13.9313 32.025C14.4938 33.4781 15.3469 34.5375 16.6594 35.4C17.5125 35.9625 17.85 36.3187 18.1313 37.0031C18.3188 37.4344 18.3282 37.6875 18.375 42.1406L18.4219 46.8281L18.6375 47.1844C18.975 47.7187 19.5282 48 20.25 48C21 48 21.5438 47.7094 21.8907 47.1187L22.125 46.7156V41.8594C22.125 36.3937 22.125 36.375 21.45 34.9875C20.9719 34.0031 20.0625 33.0094 18.9938 32.3062C18.1688 31.7719 17.9344 31.5094 17.5969 30.7781C17.4 30.3375 17.3907 30.2344 17.3625 26.175C17.325 21.3656 17.3907 20.4187 17.8032 19.5375C18.1969 18.6937 18.8532 18.075 19.8094 17.625C20.8032 17.1656 21.6 16.9781 22.9032 16.8937C26.625 16.6406 29.1938 17.5875 30.1032 19.5375C30.5157 20.4281 30.5813 21.3562 30.5438 26.175C30.5063 29.8312 30.4875 30.375 30.3469 30.7594C30.1125 31.3687 29.7094 31.8094 28.8844 32.3625C27.3938 33.375 26.4657 34.6406 26.0532 36.2625C25.8844 36.9187 25.875 37.3312 25.875 41.8406V46.7156L26.1094 47.1187C26.7938 48.2812 28.65 48.3187 29.3625 47.1844L29.5782 46.8281L29.625 42.0937C29.6719 37.5375 29.6813 37.3406 29.8688 36.9375C30.15 36.3281 30.4782 35.9812 31.2938 35.4094C32.7657 34.3781 33.7875 32.9437 34.1625 31.3969C34.3782 30.525 34.3875 20.6062 34.1719 19.6219C33.825 17.9531 33.2813 16.95 32.1188 15.7875C30.6657 14.3344 28.9688 13.5469 26.4844 13.1719C25.3125 12.9937 22.4907 13.0031 21.3469 13.1812Z" fill="#F1C012"/>
<path d="M7.31244 16.8844C3.64682 17.2781 1.24682 18.9281 0.299942 21.7031L0.0468168 22.4531L0.0186918 27.7219C-0.0094332 33.6656 -0.00943317 33.6563 0.674942 35.0625C1.01244 35.7469 1.21869 36.0094 2.15619 36.9469C2.75619 37.5375 3.31869 38.1844 3.40307 38.3719C3.69369 38.9813 3.74994 39.7219 3.74994 43.2563V46.7156L3.98432 47.1188C4.33119 47.7094 4.87494 48 5.62494 48C6.37494 48 6.91869 47.7094 7.26557 47.1188L7.49994 46.7156V42.6469C7.49994 38.0531 7.48119 37.9031 6.82494 36.5625C6.48744 35.8781 6.28119 35.6156 5.34369 34.6781C4.74369 34.0875 4.18119 33.4406 4.08744 33.2438C3.77807 32.5875 3.73119 31.7906 3.76869 27.4875C3.81557 22.7063 3.81557 22.7063 4.58432 21.9375C5.37182 21.1594 6.59994 20.7563 8.58744 20.6438C9.95619 20.5594 10.2281 20.4563 10.7249 19.8469C10.9968 19.5 11.0156 19.4344 11.0156 18.7031C11.0156 17.9719 10.9968 17.8969 10.7249 17.5594C10.2656 16.9781 9.75932 16.7813 8.81244 16.7906C8.37182 16.8 7.69682 16.8375 7.31244 16.8844Z" fill="black"/>
<path d="M37.9781 16.9875C37.7438 17.1 37.425 17.3625 37.275 17.5594C37.0031 17.8969 36.9844 17.9719 36.9844 18.7031C36.9844 19.4344 37.0031 19.5 37.275 19.8469C37.7719 20.4563 38.0438 20.5594 39.4125 20.6438C42.0188 20.7938 43.5281 21.525 44.025 22.8656C44.1656 23.2406 44.1938 23.8125 44.2313 27.4875C44.2688 31.7906 44.2219 32.5875 43.9125 33.2438C43.8188 33.4406 43.2563 34.0875 42.6562 34.6781C41.7188 35.6156 41.5125 35.8781 41.175 36.5625C40.5188 37.9031 40.5 38.0531 40.5 42.6469V46.7156L40.7344 47.1188C41.0813 47.7094 41.625 48 42.375 48C43.125 48 43.6688 47.7094 44.0156 47.1188L44.25 46.7156V43.2563C44.25 39.7219 44.3063 38.9813 44.5969 38.3719C44.6813 38.1844 45.2438 37.5375 45.8438 36.9469C46.7812 36.0094 46.9875 35.7469 47.325 35.0625C48.0094 33.6563 48.0094 33.6656 47.9813 27.7219L47.9531 22.4531L47.7 21.7031C46.6688 18.6656 43.9219 17.0063 39.6281 16.8188C38.4563 16.7719 38.3719 16.7813 37.9781 16.9875Z" fill="black"/>
<path d="M12.1219 37.9312C11.8969 38.0625 11.6156 38.3438 11.4844 38.5687L11.25 38.9719V42.8438V46.7156L11.4844 47.1187C11.8313 47.7094 12.375 48 13.125 48C13.875 48 14.4188 47.7094 14.7656 47.1187L15 46.7156V42.8438V38.9719L14.7656 38.5687C14.4188 37.9781 13.875 37.6875 13.1156 37.6875C12.6375 37.6875 12.4313 37.7344 12.1219 37.9312Z" fill="black"/>
<path d="M33.8719 37.9312C33.6469 38.0625 33.3656 38.3438 33.2344 38.5687L33 38.9719V42.8438V46.7156L33.2344 47.1187C33.5813 47.7094 34.125 48 34.875 48C35.625 48 36.1688 47.7094 36.5156 47.1187L36.75 46.7156V42.8438V38.9719L36.5156 38.5687C36.1688 37.9781 35.625 37.6875 34.8656 37.6875C34.3875 37.6875 34.1813 37.7344 33.8719 37.9312Z" fill="black"/>
</g>
<defs>
<clipPath id="clip0_140_27">
<rect width="48" height="48" fill="white"/>
</clipPath>
</defs>
</svg>
