<svg width="48" height="48" viewBox="0 0 48 48" fill="none" xmlns="http://www.w3.org/2000/svg">
<path d="M20.8594 0.126564C16.6969 0.642189 12.8719 2.18906 9.42188 4.74844C8.01562 5.79844 5.67188 8.14219 4.62188 9.54844C2.38125 12.5672 0.984375 15.7266 0.215625 19.4953C0.009375 20.4984 0 20.7797 0 23.9859C0 27.1922 0.009375 27.4734 0.215625 28.4766C0.984375 32.2453 2.38125 35.4047 4.62188 38.4234C5.67188 39.8297 8.01562 42.1734 9.42188 43.2234C12.9094 45.8109 16.725 47.3391 20.9531 47.8547C22.4062 48.0234 25.3125 48.0234 26.7656 47.8453C29.9906 47.4422 33.225 46.3734 35.8313 44.8359C36.9094 44.1984 37.2094 43.7859 37.2 42.9047C37.1906 41.8078 36.4125 41.0484 35.2875 41.0484C34.8469 41.0484 34.6313 41.1141 34.1063 41.3953C31.5469 42.7734 29.7844 43.4203 27.3281 43.8891C25.8656 44.1609 21.975 44.1891 20.5781 43.9266C16.2094 43.1109 12.6469 41.2547 9.61875 38.2266C6.59063 35.1984 4.73438 31.6359 3.91875 27.2672C3.68438 25.9922 3.68438 21.9797 3.91875 20.7047C4.73438 16.3359 6.59063 12.7734 9.61875 9.74531C12.6469 6.71719 16.2094 4.86094 20.5781 4.04531C21.8625 3.81094 25.8656 3.81094 27.1406 4.04531C30.0281 4.58906 32.8406 5.68594 34.8094 7.03594C36.0844 7.91719 37.1906 7.86094 37.9594 6.89531C38.2125 6.57656 38.25 6.44531 38.2781 5.86406C38.3156 4.92656 38.1188 4.59844 37.0781 3.90469C34.0875 1.89844 30.4594 0.567188 26.7188 0.126564C25.3406 -0.0421867 22.2188 -0.0421867 20.8594 0.126564Z" fill="black"/>
<path d="M45.0842 4.01721C44.7654 4.17659 43.0404 6.27659 34.8185 16.5141C29.381 23.2735 24.8154 28.9266 24.6654 29.0672C24.4592 29.2735 24.3092 29.3297 23.9904 29.3297C23.5123 29.3297 24.0842 29.836 17.7373 23.7985C15.3748 21.5578 13.2654 19.6266 13.0498 19.5047C12.7217 19.3172 12.5529 19.2891 12.0373 19.3172C11.2592 19.3547 10.7435 19.6735 10.4435 20.3016C10.1717 20.8641 10.2185 21.7735 10.5467 22.2328C10.9217 22.7485 20.756 32.0297 21.356 32.4328C22.8654 33.436 25.106 33.436 26.6342 32.4328C26.9342 32.236 27.3373 31.9078 27.5248 31.711C28.1717 31.0172 47.531 6.87659 47.6998 6.54846C47.9529 6.05159 47.8873 5.10471 47.5592 4.60784C47.0717 3.87659 45.9279 3.60471 45.0842 4.01721Z" fill="#F1C012"/>
<path d="M44.3623 16.7766C43.9123 17.0203 43.4811 17.611 43.4061 18.1172C43.3592 18.3797 43.4248 18.8953 43.5842 19.6828C43.9498 21.4547 44.0436 22.6078 43.9873 24.5953C43.8936 28.2516 42.9748 31.3453 41.0436 34.5047C40.4717 35.4422 40.4061 35.6016 40.3779 36.136C40.3029 37.2985 40.9498 38.0485 42.1029 38.1235C43.0217 38.1891 43.4154 37.9547 44.0811 36.9422C46.0592 33.9422 47.3342 30.2953 47.7748 26.4328C47.9342 24.9797 47.8404 21.5203 47.5873 20.0953C47.1467 17.5735 46.9686 17.1703 46.1061 16.7297C45.6842 16.5141 44.8123 16.5422 44.3623 16.7766Z" fill="black"/>
</svg>
