<svg viewBox="0 0 48 52" fill="none" xmlns="http://www.w3.org/2000/svg">
<path d="M22.6338 0.26178C22.3922 0.402737 22.0901 0.704792 21.9492 0.946434C21.7176 1.34917 21.6975 1.46999 21.6975 2.69834C21.6975 4.2086 21.8082 4.05758 20.6403 4.1784C16.7639 4.58113 12.1828 6.51427 8.86022 9.16227C4.86305 12.354 1.89286 16.9351 0.654448 21.8384C0.0805474 24.1239 0 24.7784 0 27.7889C0 30.7993 0.0805474 31.4538 0.654448 33.7393C1.89286 38.6326 4.86305 43.2238 8.86022 46.4154C11.4277 48.4593 14.6596 50.0703 17.7305 50.8355C20.1167 51.4295 20.7007 51.4899 23.7111 51.5C26.7216 51.5 27.366 51.4295 29.6616 50.8456C32.1283 50.2213 34.6857 49.0836 36.8706 47.6337C38.3607 46.647 38.6124 46.3047 38.6124 45.3079C38.6124 44.0695 37.8371 43.2942 36.5786 43.2942C35.9241 43.2942 35.9141 43.3043 34.6757 44.1098C31.1517 46.4054 27.7486 47.4324 23.6205 47.4324C14.4482 47.4223 6.46393 40.9483 4.49052 31.937C4.12806 30.2858 4.04751 29.3092 4.10792 27.1747C4.16833 24.9194 4.34956 23.7716 4.98387 21.7981C6.93715 15.7269 11.7901 10.9142 17.8715 9.02131C20.2375 8.28632 22.362 8.03461 24.9898 8.17556C32.6318 8.5783 39.6394 13.8743 42.237 21.2142C43.0123 23.399 43.3446 25.3523 43.3446 27.7385C43.3446 30.9805 42.7807 33.4372 41.3208 36.5585C40.6563 37.958 40.5858 38.411 40.9181 39.1158C41.2906 39.9112 41.8746 40.2737 42.8009 40.2737C43.4654 40.2737 44.0292 40.0119 44.3816 39.5488C45.1066 38.5822 46.2141 35.8738 46.7678 33.699C47.3518 31.3833 47.5028 29.9234 47.4424 27.1948C47.3921 24.7683 47.2713 23.842 46.7678 21.8384C45.5294 16.9452 42.5592 12.354 38.5621 9.16227C35.2294 6.51427 30.6584 4.58113 26.782 4.1784C25.6141 4.05758 25.7248 4.2086 25.7248 2.69834C25.7248 1.46999 25.7047 1.34917 25.4731 0.946434C25.1006 0.312122 24.5166 0 23.7011 0C23.1876 0 22.9661 0.0503426 22.6338 0.26178Z" fill="black"/>
<path d="M7.71235 1.62102C7.52105 1.73177 6.0712 2.90978 4.49046 4.22874C2.40629 5.96051 1.56055 6.71564 1.43972 6.98749C1.23836 7.40029 1.19808 8.29638 1.36925 8.72933C1.5102 9.11193 2.04383 9.65562 2.4365 9.82678C2.8493 10.008 3.69505 10.008 4.10786 9.82678C4.62135 9.60528 10.1288 4.98387 10.451 4.51065C10.6725 4.15826 10.7228 3.97703 10.7228 3.43333C10.7228 2.61779 10.4107 2.03382 9.77638 1.66129C9.20248 1.32903 8.22584 1.3089 7.71235 1.62102Z" fill="black"/>
<path d="M37.535 1.67138C36.9108 2.04391 36.5986 2.62788 36.5986 3.43335C36.5986 3.97704 36.649 4.15828 36.8805 4.51067C37.1826 4.98389 42.7706 9.59523 43.3143 9.8268C43.6969 9.99796 44.5225 10.008 44.9252 9.85701C45.3078 9.71605 45.8515 9.18242 46.0227 8.78975C46.224 8.31654 46.2039 7.41038 45.9723 6.9573C45.8314 6.68545 44.9756 5.93032 42.8511 4.19855C41.2502 2.88965 39.7803 1.72172 39.599 1.61096C39.0956 1.30891 38.0888 1.32905 37.535 1.67138Z" fill="black"/>
<path d="M13.9247 15.898C11.7701 16.5927 10.4209 18.4554 10.4209 20.7409C10.4209 23.6306 12.5655 25.7751 15.4551 25.7751C18.3447 25.7751 20.4893 23.6306 20.4893 20.7409C20.4893 18.4554 19.12 16.5625 16.9754 15.9081C16.1398 15.6463 14.7302 15.6463 13.9247 15.898ZM16.1096 20.0865C16.6935 20.6604 16.2606 21.6471 15.435 21.6471C14.8913 21.6471 14.549 21.2947 14.549 20.7409C14.549 20.1771 14.8913 19.8348 15.4551 19.8348C15.7572 19.8348 15.9283 19.8952 16.1096 20.0865Z" fill="#F1C012"/>
<path d="M28.3728 15.9685C28.0707 16.1497 27.8291 16.4115 27.5572 16.8948C27.3357 17.2673 24.7783 21.9894 21.8585 27.3962L16.5625 37.2129V37.8673C16.5625 38.7131 16.9149 39.3273 17.5895 39.6595C18.4554 40.0723 19.7038 39.8407 20.1771 39.1762C20.2777 39.0353 22.8653 34.293 25.9161 28.6346L31.4638 18.3648V17.7204C31.4638 16.482 30.6885 15.7067 29.44 15.7067C28.9265 15.7067 28.705 15.7571 28.3728 15.9685Z" fill="#F1C012"/>
<path d="M30.5375 29.9938C28.3829 30.6886 27.0337 32.5512 27.0337 34.8368C27.0337 37.7264 29.1783 39.871 32.0679 39.871C34.9575 39.871 37.1021 37.7264 37.1021 34.8368C37.1021 32.5512 35.7328 30.6584 33.5882 30.0039C32.7526 29.7421 31.343 29.7421 30.5375 29.9938ZM32.7224 34.1823C33.3063 34.7562 32.8734 35.7429 32.0478 35.7429C31.5041 35.7429 31.1617 35.3905 31.1617 34.8368C31.1617 34.2729 31.5041 33.9306 32.0679 33.9306C32.37 33.9306 32.5411 33.991 32.7224 34.1823Z" fill="#F1C012"/>
</svg>
