<svg width="48" height="48" viewBox="0 0 48 48" fill="none" xmlns="http://www.w3.org/2000/svg">
<g clip-path="url(#clip0_115_61)">
<path d="M22.4397 2.2964C3.72164 10.6448 4.31042 10.3548 4.07315 11.216C4.00285 11.4885 3.98527 13.7821 4.01164 19.6523C4.038 28.3962 4.02921 28.2117 4.55648 30.435C6.06798 36.8501 10.4443 42.5094 15.9806 45.1985C18.5906 46.4727 20.8491 47 23.67 47C27.1324 47 30.3487 46.0597 33.2487 44.1791C34.602 43.3091 34.9184 42.9137 34.9184 42.1052C34.9184 41.3934 34.5581 40.8134 33.9166 40.4794C33.6529 40.3388 33.4508 40.3125 33.029 40.3388C32.5369 40.3652 32.4051 40.4267 31.5878 40.954C28.8021 42.7819 25.7878 43.6079 22.756 43.3882C20.9721 43.2652 19.487 42.8434 17.703 41.9734C14.2231 40.2685 11.3407 37.3246 9.52159 33.5986C8.82736 32.175 8.46706 31.1907 8.11554 29.7583C7.60585 27.6756 7.57949 27.1659 7.60585 19.6875L7.63221 12.8945L15.5764 9.33544C21.0424 6.88364 23.5733 5.78516 23.7051 5.82031C23.8018 5.84668 27.4487 7.44606 31.7987 9.37938L39.7077 12.8945L39.7341 19.7754C39.7517 25.505 39.7341 26.8232 39.6199 27.6668C39.3211 29.9692 38.6883 31.9465 37.5371 34.1698C36.8517 35.4968 36.8341 35.5495 36.8693 36.0592C36.9484 37.2192 37.9414 37.9486 39.0662 37.6761C39.778 37.5092 40.1208 37.0961 40.9556 35.4001C42.2913 32.711 42.9065 30.6283 43.2229 27.825C43.3283 26.8847 43.3547 25.215 43.3547 19.0987C43.3547 13.8787 43.3195 11.4357 43.258 11.1897C43.0383 10.3988 43.2141 10.4866 33.3366 6.10152C22.9318 1.47913 23.67 1.74277 22.4397 2.2964Z" fill="black"/>
<path d="M32.2554 16.1899C32.0621 16.2602 31.8161 16.4096 31.693 16.5239C31.5788 16.6293 29.7509 19.1338 27.6418 22.0865C22.3604 29.4771 22.6855 29.0465 22.2813 29.1695C22.0001 29.2486 21.8946 29.2398 21.6837 29.1344C21.5431 29.0553 20.1107 27.7107 18.5025 26.1377C15.2774 23.0005 15.1983 22.939 14.3283 23.0356C13.1068 23.185 12.3862 24.5471 12.975 25.6368C13.1947 26.0586 18.898 31.6477 19.5219 32.0607C21.3058 33.2471 23.8016 32.9834 25.2603 31.4719C25.814 30.8919 34.3469 19.0108 34.5403 18.5363C34.7424 18.0705 34.6545 17.306 34.3645 16.8666C33.9427 16.2339 32.9673 15.9263 32.2554 16.1899Z" fill="#F1C012"/>
</g>
<defs>
<clipPath id="clip0_115_61">
<rect width="48" height="48" fill="white"/>
</clipPath>
</defs>
</svg>
